<?xml version="1.0" encoding="utf-8"?>
<!-- Generator: Adobe Illustrator 19.2.1, SVG Export Plug-In . SVG Version: 6.00 Build 0)  -->
<svg version="1.1" id="layer" xmlns="http://www.w3.org/2000/svg" xmlns:xlink="http://www.w3.org/1999/xlink" x="0px" y="0px"
	 viewBox="0 0 652 652" style="enable-background:new 0 0 652 652;" xml:space="preserve">
<path d="M186.9,380c29,0,57.9,12.3,71.2,34.5l-31.5,25.5c-10.7-9.7-23.8-16.7-40-16.7c-17.6,0-26.1,7.2-26.1,13.8
	c0,8.9,8.2,14,26.1,18.4l16.1,3.9c45.3,10.9,62,31.9,62,58.2c0,34.6-30.9,58.7-82.6,58.7c-28.9,0-64.5-12.1-78.3-37l31.5-25.5
	c12.7,12.9,27.2,20.7,46.5,20.7c16.8,0,30.1-5.6,30.1-15.6c0-8.1-6.1-11.2-22.7-15.3l-16.9-4.2c-45.1-11.2-62.5-36.6-62.5-61.1
	C109.9,406.8,137.9,380,186.9,380z M553.2,385.4v44.1H498v141.1h-51V429.5h-55.2v-44.1C391.8,385.4,553.2,385.4,553.2,385.4z
	 M151.5,76.5v109.7c0,21.9,12.5,34.3,32.8,34.3c20.3,0,32.5-12.4,32.5-34.3V76.5h50.8V186c0,50.9-30.5,81.6-83,81.6
	c-54.6,0-83.8-32-83.8-81.6V76.5H151.5z M508.5,131.4v71.9h-71.9v-71.9H508.5z"/>
</svg>
