<svg id="Group_172874" data-name="Group 172874" xmlns="http://www.w3.org/2000/svg" xmlns:xlink="http://www.w3.org/1999/xlink" width="29.582" height="50" viewBox="0 0 29.582 50">
  <defs>
    <clipPath id="clip-path">
      <rect id="Rectangle_154662" data-name="Rectangle 154662" width="29.582" height="50" fill="none"/>
    </clipPath>
    <clipPath id="clip-path-3">
      <rect id="Rectangle_154660" data-name="Rectangle 154660" width="15.786" height="15.036" fill="none"/>
    </clipPath>
  </defs>
  <g id="Group_172873" data-name="Group 172873" clip-path="url(#clip-path)">
    <g id="Group_172872" data-name="Group 172872">
      <g id="Group_172871" data-name="Group 172871" clip-path="url(#clip-path)">
        <path id="Path_40407" data-name="Path 40407" d="M144.394,199.8a2.211,2.211,0,1,1,2.211-2.211,2.213,2.213,0,0,1-2.211,2.211m0-3.57a1.36,1.36,0,1,0,1.36,1.36,1.361,1.361,0,0,0-1.36-1.36" transform="translate(-129.522 -177.984)" fill="#ffcb4a"/>
        <path id="Path_40408" data-name="Path 40408" d="M154.8,154.922h0a1.106,1.106,0,0,1-1.106-1.106V150.1a1.106,1.106,0,0,1,2.211,0v3.716a1.106,1.106,0,0,1-1.106,1.106" transform="translate(-140.006 -135.728)" fill="#f2af41"/>
        <rect id="Rectangle_154655" data-name="Rectangle 154655" width="26.81" height="2.163" transform="translate(1.404 12.186)" fill="#ffcb4a"/>
        <rect id="Rectangle_154656" data-name="Rectangle 154656" width="26.81" height="2.163" transform="translate(1.404 0)" fill="#ffcb4a"/>
        <rect id="Rectangle_154657" data-name="Rectangle 154657" width="24.339" height="10.115" transform="translate(2.639 2.071)" fill="#881e87"/>
        <path id="Path_40409" data-name="Path 40409" d="M29.635,23.254v1.053s10.026-.537,16.347,1.58,7.992,5.753,7.992,5.753V23.254Z" transform="translate(-26.996 -21.183)" fill="#6c146b"/>
        <rect id="Rectangle_154658" data-name="Rectangle 154658" width="26.81" height="0.827" transform="translate(1.404 13.522)" fill="#f2af41"/>
        <rect id="Rectangle_154659" data-name="Rectangle 154659" width="26.81" height="0.827" transform="translate(1.404 1.337)" fill="#f2af41"/>
        <path id="Path_40410" data-name="Path 40410" d="M8.365,249.31a11.64,11.64,0,0,0,4.008,8.792c-.937.427-1.835.784-2.657,1.082a14.278,14.278,0,0,1,14.828-23.42c.123.93.221,1.911.277,2.918A11.662,11.662,0,0,0,8.365,249.31" transform="translate(-5.233 -214.102)" fill="#ffce46"/>
        <path id="Path_40411" data-name="Path 40411" d="M53.913,283.092a25.534,25.534,0,0,1-9,6.809,11.146,11.146,0,0,1,11.965-18.606c.162,4.145-.433,8.64-2.969,11.8" transform="translate(-37.266 -246.137)" fill="#ffce46"/>
        <path id="Path_40412" data-name="Path 40412" d="M46.835,264.457A11.66,11.66,0,1,0,58.5,276.116a11.673,11.673,0,0,0-11.661-11.659m0,22.81a11.149,11.149,0,1,1,11.15-11.15,11.163,11.163,0,0,1-11.15,11.15" transform="translate(-32.043 -240.908)" fill="#fff"/>
        <path id="Path_40413" data-name="Path 40413" d="M17.409,232.155A14.536,14.536,0,1,0,31.945,246.69a14.537,14.537,0,0,0-14.535-14.535m0,28.816a14.28,14.28,0,1,1,14.28-14.281,14.3,14.3,0,0,1-14.28,14.281" transform="translate(-2.617 -211.483)" fill="#fff"/>
        <path id="Path_40414" data-name="Path 40414" d="M14.792,229.293a14.791,14.791,0,1,0,14.79,14.79,14.808,14.808,0,0,0-14.79-14.79m0,29.071a14.28,14.28,0,1,1,14.28-14.281,14.3,14.3,0,0,1-14.28,14.281" transform="translate(0 -208.875)" fill="#d0872d"/>
        <path id="Path_40415" data-name="Path 40415" d="M65.168,243.262c.123.93.221,1.911.277,2.918A11.659,11.659,0,1,1,53,265.6c-.937.427-1.835.784-2.658,1.082a14.278,14.278,0,1,0,14.828-23.42" transform="translate(-45.857 -221.601)" fill="#faaa29"/>
        <path id="Path_40416" data-name="Path 40416" d="M49.441,267.33a11.4,11.4,0,1,0,11.405,11.4,11.417,11.417,0,0,0-11.405-11.4m0,22.554a11.149,11.149,0,1,1,11.15-11.15,11.163,11.163,0,0,1-11.15,11.15" transform="translate(-34.649 -243.525)" fill="#fff"/>
        <path id="Path_40417" data-name="Path 40417" d="M46.835,264.457A11.66,11.66,0,1,0,58.5,276.116a11.673,11.673,0,0,0-11.661-11.659m0,22.81a11.149,11.149,0,1,1,11.15-11.15,11.163,11.163,0,0,1-11.15,11.15" transform="translate(-32.043 -240.908)" fill="#d0872d"/>
        <path id="Path_40418" data-name="Path 40418" d="M104.21,292.575a11.143,11.143,0,0,1-18.292,8.555,25.534,25.534,0,0,0,9-6.809c2.537-3.157,3.131-7.652,2.969-11.8a11.164,11.164,0,0,1,6.326,10.05" transform="translate(-78.267 -257.367)" fill="#faaa29"/>
        <path id="Path_40419" data-name="Path 40419" d="M12.236,390.817l.229.465.513.075-.371.362.088.511-.459-.241-.459.241.088-.511-.372-.362.513-.075Z" transform="translate(-10.47 -356.016)" fill="#d0872d"/>
        <path id="Path_40420" data-name="Path 40420" d="M304.789,390.817l.229.465.513.075-.371.362.088.511-.459-.241-.459.241.088-.511-.372-.362.513-.075Z" transform="translate(-276.972 -356.016)" fill="#d0872d"/>
        <path id="Path_40421" data-name="Path 40421" d="M158.447,533.41l.508-.1.2-.476.254.452.516.047-.351.381.115.506-.471-.216-.445.266.06-.515Z" transform="translate(-144.338 -485.385)" fill="#d0872d"/>
        <path id="Path_40422" data-name="Path 40422" d="M158.447,242.435l.508-.1.2-.476.254.452.516.047-.351.381.115.506-.471-.216-.445.266.06-.515Z" transform="translate(-144.338 -220.32)" fill="#d0872d"/>
        <path id="Path_40423" data-name="Path 40423" d="M101.276,255.078l-.339.392.131.5-.478-.2-.436.28.043-.516-.4-.329.5-.118.188-.483.269.444Z" transform="translate(-90.91 -231.933)" fill="#d0872d"/>
        <path id="Path_40424" data-name="Path 40424" d="M54.746,287.218l-.167.491.31.415-.518-.007-.3.423-.154-.495-.5-.154.424-.3-.007-.519.416.31Z" transform="translate(-48.666 -261.512)" fill="#d0872d"/>
        <path id="Path_40425" data-name="Path 40425" d="M261.613,494.085l-.167.491.31.416-.518-.007-.3.423-.154-.495-.5-.154.424-.3-.007-.519.415.31Z" transform="translate(-237.112 -449.958)" fill="#d0872d"/>
        <path id="Path_40426" data-name="Path 40426" d="M216.7,255.456l.518-.027.272-.441.186.484.5.122-.4.326.04.517-.434-.283-.479.2.135-.5Z" transform="translate(-197.404 -232.282)" fill="#d0872d"/>
        <path id="Path_40427" data-name="Path 40427" d="M55.6,494.085l.491.167.415-.31-.006.518.423.3-.495.154-.154.5-.3-.423-.519.007.31-.415Z" transform="translate(-50.519 -449.958)" fill="#d0872d"/>
        <path id="Path_40428" data-name="Path 40428" d="M262.467,287.218l.491.167.415-.31-.007.518.423.3-.495.154-.154.5-.3-.424-.519.007.31-.415Z" transform="translate(-238.965 -261.512)" fill="#d0872d"/>
        <path id="Path_40429" data-name="Path 40429" d="M214.785,522.233l-.338.393.133.5-.478-.2-.436.281.042-.517-.4-.327.5-.119.187-.485.27.444Z" transform="translate(-194.312 -475.3)" fill="#d0872d"/>
        <path id="Path_40430" data-name="Path 40430" d="M22.748,445.737l.394.337.5-.133-.2.479.28.435-.516-.042-.327.4-.119-.5-.484-.187.443-.269Z" transform="translate(-20.293 -406.046)" fill="#d0872d"/>
        <path id="Path_40431" data-name="Path 40431" d="M291.846,330.938l.394.337.5-.131-.2.477.281.437-.516-.042-.328.4-.119-.505-.483-.187.442-.27Z" transform="translate(-265.429 -301.469)" fill="#d0872d"/>
        <path id="Path_40432" data-name="Path 40432" d="M103.819,524.175l-.516.039-.261.448-.2-.48-.506-.108.394-.336-.052-.516.44.272.474-.21-.122.5Z" transform="translate(-93.226 -476.632)" fill="#d0872d"/>
        <path id="Path_40433" data-name="Path 40433" d="M23.655,333.318l.04.517.448.261-.479.2-.109.507-.336-.4-.516.052.273-.441-.211-.474.5.122Z" transform="translate(-20.681 -303.638)" fill="#d0872d"/>
        <path id="Path_40434" data-name="Path 40434" d="M295.1,442.421l.039.518.447.26-.479.2L295,443.9l-.335-.394-.516.052.272-.439-.21-.476.5.123Z" transform="translate(-267.955 -403.026)" fill="#d0872d"/>
        <g id="Group_172870" data-name="Group 172870" transform="translate(6.898 27.691)" opacity="0.54">
          <g id="Group_172869" data-name="Group 172869">
            <g id="Group_172868" data-name="Group 172868" clip-path="url(#clip-path-3)">
              <path id="Path_40435" data-name="Path 40435" d="M85.573,311.106l2.163,4.689a.234.234,0,0,0,.185.134l5.127.608a.234.234,0,0,1,.131.4l-3.791,3.505a.234.234,0,0,0-.071.217l1.006,5.064a.234.234,0,0,1-.343.25l-4.505-2.522a.234.234,0,0,0-.228,0l-4.505,2.522a.234.234,0,0,1-.343-.25l1.006-5.064a.234.234,0,0,0-.071-.217l-3.79-3.505a.234.234,0,0,1,.131-.4l5.127-.608a.234.234,0,0,0,.185-.134l2.163-4.689a.234.234,0,0,1,.424,0" transform="translate(-77.468 -310.971)" fill="#fce6b2"/>
            </g>
          </g>
        </g>
      </g>
    </g>
  </g>
</svg>
