<svg id="Group_172859" data-name="Group 172859" xmlns="http://www.w3.org/2000/svg" xmlns:xlink="http://www.w3.org/1999/xlink" width="51.999" height="45.855" viewBox="0 0 51.999 45.855">
  <defs>
    <clipPath id="clip-path">
      <rect id="Rectangle_154651" data-name="Rectangle 154651" width="51.999" height="45.855" fill="none"/>
    </clipPath>
    <clipPath id="clip-path-3">
      <rect id="Rectangle_154646" data-name="Rectangle 154646" width="19.794" height="38.271" fill="none"/>
    </clipPath>
    <clipPath id="clip-path-4">
      <rect id="Rectangle_154647" data-name="Rectangle 154647" width="32.547" height="32.546" fill="none"/>
    </clipPath>
    <clipPath id="clip-path-5">
      <rect id="Rectangle_154648" data-name="Rectangle 154648" width="32.547" height="32.547" fill="none"/>
    </clipPath>
    <clipPath id="clip-path-6">
      <rect id="Rectangle_154649" data-name="Rectangle 154649" width="19.664" height="18.73" fill="none"/>
    </clipPath>
  </defs>
  <g id="Group_172858" data-name="Group 172858" clip-path="url(#clip-path)">
    <g id="Group_172857" data-name="Group 172857">
      <g id="Group_172856" data-name="Group 172856" clip-path="url(#clip-path)">
        <path id="Path_40339" data-name="Path 40339" d="M260.5,205.295l-.457.615-3.569,4.8-.493.664a45.044,45.044,0,0,0-10.363-5.086v-7.853a52.565,52.565,0,0,1,14.882,6.859" transform="translate(-211.136 -170.58)" fill="#ed302e"/>
        <path id="Path_40340" data-name="Path 40340" d="M269.376,266.04a41.3,41.3,0,0,0-4.988-2.673l-.858,1.793c-.124.261-.188.39-.312.652a49.993,49.993,0,0,1,7.892,1.379c-.684-.479-1.031-.71-1.734-1.151" transform="translate(-226.268 -226.396)" fill="#8d1417"/>
        <path id="Path_40341" data-name="Path 40341" d="M278.267,272.738a45,45,0,0,0-4.88-3.959l-2.278,3.065a44.569,44.569,0,0,0-7.892-1.379c3.294,1.774,8.079,3.977,10.864,6.439a31.725,31.725,0,0,0-.992-4.474,38.506,38.506,0,0,1,5.177.309" transform="translate(-226.268 -231.049)" fill="#b11f24"/>
        <path id="Path_40342" data-name="Path 40342" d="M18.792,205.586a52.555,52.555,0,0,1,14.687-6.8v7.865a45.1,45.1,0,0,0-10.168,5.019L22.818,211q-1.784-2.4-3.568-4.8l-.458-.614" transform="translate(-16.154 -170.878)" fill="#ed302e"/>
        <path id="Path_40343" data-name="Path 40343" d="M58.564,265.115l-.858-1.793a41.286,41.286,0,0,0-4.988,2.673c-.7.441-1.05.672-1.734,1.151a50,50,0,0,1,7.892-1.379l-.312-.652" transform="translate(-43.827 -226.358)" fill="#8d1417"/>
        <path id="Path_40344" data-name="Path 40344" d="M4.879,268.735A45.055,45.055,0,0,0,0,272.694a38.529,38.529,0,0,1,5.177-.309,31.669,31.669,0,0,0-.991,4.474c2.785-2.462,7.57-4.664,10.864-6.439A49.62,49.62,0,0,0,7.157,271.8l-2.278-3.064" transform="translate(0 -231.011)" fill="#b11f24"/>
        <path id="Path_40345" data-name="Path 40345" d="M84.87,20.195a2.053,2.053,0,0,0-.411-3.915,2.053,2.053,0,0,0-1.217-3.744,2.053,2.053,0,0,0-1.968-3.409A2.053,2.053,0,0,0,78.64,6.2,2.056,2.056,0,0,0,75.588,3.79,1.968,1.968,0,0,0,74.4,1.75a1.959,1.959,0,0,0-2.5.756A2.047,2.047,0,0,0,68,1.44a2.054,2.054,0,0,0-3.928.029,2.053,2.053,0,0,0-3.85.819,2.053,2.053,0,0,0-3.6,1.6A2.053,2.053,0,0,0,53.442,6.2a2.053,2.053,0,0,0-2.634,2.925,2.053,2.053,0,0,0-1.969,3.409,2.053,2.053,0,0,0-1.216,3.744,2.053,2.053,0,0,0-.411,3.915,2.053,2.053,0,0,0,.411,3.915,2.053,2.053,0,0,0,1.216,3.744,2.053,2.053,0,0,0,1.969,3.409,2.053,2.053,0,0,0,2.634,2.925A2.053,2.053,0,0,0,56.626,36.5a2.053,2.053,0,0,0,3.6,1.6,2.053,2.053,0,0,0,3.85.819,2.053,2.053,0,0,0,3.936,0,2.053,2.053,0,0,0,3.85-.818,2.053,2.053,0,0,0,3.6-1.6,2.053,2.053,0,0,0,3.184-2.314,2.053,2.053,0,0,0,2.634-2.925,2.053,2.053,0,0,0,1.968-3.409,2.053,2.053,0,0,0,1.217-3.744,2.053,2.053,0,0,0,.411-3.915" transform="translate(-39.496)" fill="#faaa29"/>
        <path id="Path_40346" data-name="Path 40346" d="M91.058,26.685A19.136,19.136,0,0,1,72.914,45.8c-.328.015-.658.024-.99.024h-.247c-.358,0-.715-.018-1.068-.043a19.033,19.033,0,0,1-5.638-1.259c-.3-.116-.6-.24-.887-.372a19.059,19.059,0,0,1-4.41-2.759c-.183-.153-.363-.308-.54-.468q-.476-.428-.923-.888A19.134,19.134,0,0,1,69.421,7.715q.63-.085,1.273-.125h0c.237-.014.475-.024.714-.032.171,0,.342-.006.514-.006a19.2,19.2,0,0,1,4.657.571q.467.117.925.258a19.008,19.008,0,0,1,5.208,2.5c.294.2.581.41.863.627.328.252.649.516.958.787a19.085,19.085,0,0,1,6.522,14.388" transform="translate(-45.378 -6.491)" fill="#fbc05f"/>
        <g id="Group_172846" data-name="Group 172846" transform="translate(7.41 1.059)" opacity="0.72" style="mix-blend-mode: overlay;isolation: isolate">
          <g id="Group_172845" data-name="Group 172845">
            <g id="Group_172844" data-name="Group 172844" clip-path="url(#clip-path-3)">
              <path id="Path_40347" data-name="Path 40347" d="M54.1,26.681A19.135,19.135,0,0,1,72.58,7.558c-.219-.007-.439-.013-.659-.013a19.135,19.135,0,0,0,0,38.271c.221,0,.44,0,.659-.012A19.135,19.135,0,0,1,54.1,26.681" transform="translate(-52.786 -7.545)" fill="#fdc988"/>
            </g>
          </g>
        </g>
        <g id="Group_172849" data-name="Group 172849" transform="translate(10.822 4.421)" opacity="0.54" style="mix-blend-mode: multiply;isolation: isolate">
          <g id="Group_172848" data-name="Group 172848">
            <g id="Group_172847" data-name="Group 172847" clip-path="url(#clip-path-4)">
              <path id="Path_40348" data-name="Path 40348" d="M109.642,47.764A16.273,16.273,0,1,1,93.368,31.491a16.273,16.273,0,0,1,16.273,16.273" transform="translate(-77.095 -31.491)" fill="#faa82f"/>
            </g>
          </g>
        </g>
        <g id="Group_172852" data-name="Group 172852" transform="translate(10.272 3.921)" opacity="0.54" style="mix-blend-mode: multiply;isolation: isolate">
          <g id="Group_172851" data-name="Group 172851">
            <g id="Group_172850" data-name="Group 172850" clip-path="url(#clip-path-5)">
              <path id="Path_40349" data-name="Path 40349" d="M105.719,44.207A16.273,16.273,0,1,1,89.445,27.933a16.273,16.273,0,0,1,16.273,16.274" transform="translate(-73.172 -27.933)" fill="#faa82f"/>
            </g>
          </g>
        </g>
        <path id="Path_40350" data-name="Path 40350" d="M110.574,50.01A15.326,15.326,0,1,1,95.249,34.684,15.326,15.326,0,0,1,110.574,50.01" transform="translate(-68.704 -29.815)" fill="#faa82f"/>
        <g id="Group_172855" data-name="Group 172855" transform="translate(16.168 10.008)" opacity="0.72">
          <g id="Group_172854" data-name="Group 172854">
            <g id="Group_172853" data-name="Group 172853" clip-path="url(#clip-path-6)">
              <path id="Path_40351" data-name="Path 40351" d="M125.269,71.466l2.694,5.84a.291.291,0,0,0,.23.167l6.386.757a.291.291,0,0,1,.163.5L130.021,83.1a.292.292,0,0,0-.088.271l1.253,6.308a.291.291,0,0,1-.428.311l-5.612-3.141a.291.291,0,0,0-.284,0l-5.612,3.141a.291.291,0,0,1-.428-.311l1.253-6.308a.292.292,0,0,0-.088-.271l-4.722-4.367a.291.291,0,0,1,.163-.5l6.386-.757a.291.291,0,0,0,.23-.167l2.694-5.84a.291.291,0,0,1,.529,0" transform="translate(-115.173 -71.297)" fill="#fbdb96"/>
            </g>
          </g>
        </g>
      </g>
    </g>
  </g>
</svg>
