<svg xmlns="http://www.w3.org/2000/svg" width="26.873" height="30.023" viewBox="0 0 26.873 30.023">
  <g id="Group_179904" data-name="Group 179904" transform="translate(6379.068 8540)">
    <path id="text-document-alt-svgrepo-com" d="M5.667,10.368H5V11.85h.667Zm8,1.482h.667V10.368h-.667Zm-8,2.971H5V16.3h.667Zm8,1.482h.667V14.821h-.667Zm-8-10.379H5V7.407h.667Zm8,1.482h.667V5.925h-.667Zm4-2.219h.667V4.88l-.2-.217Zm-4-4.446.472-.524L13.944,0h-.276Zm-8,11.109h8V10.368h-8Zm0,4.453h8V14.821h-8Zm0-8.9h8V5.925h-8ZM16.335,20.749H3v1.482H16.335Zm-14-.741V2.223H1V20.008ZM17,5.187V20.008h1.333V5.187ZM3,1.482H13.668V0H3Zm10.2-.217,4,4.446.943-1.048-4-4.446ZM3,20.749a.707.707,0,0,1-.667-.741H1a2.121,2.121,0,0,0,2,2.223Zm13.335,1.482a2.121,2.121,0,0,0,2-2.223H17a.707.707,0,0,1-.667.741Zm-14-20.008A.707.707,0,0,1,3,1.482V0A2.121,2.121,0,0,0,1,2.223Z" transform="translate(-6380.068 -8540)" fill="#006e74"/>
    <g id="Group_179904-2" data-name="Group 179904" transform="translate(-20.366 -25)">
      <ellipse id="Ellipse_3231" data-name="Ellipse 3231" cx="6.45" cy="6.911" rx="6.45" ry="6.911" transform="translate(-6350 -8502)" fill="#fff"/>
      <path id="icons8-ai" d="M14.57,7.867,12.818,7.1A5.771,5.771,0,0,1,9.825,4.036L9.159,2.447a.711.711,0,0,0-1.316,0L7.177,4.036A5.776,5.776,0,0,1,4.183,7.1l-1.752.771a.732.732,0,0,0,0,1.335L4.24,10a5.768,5.768,0,0,1,2.951,2.961l.657,1.491a.711.711,0,0,0,1.306,0l.657-1.491A5.771,5.771,0,0,1,12.762,10l1.809-.8A.732.732,0,0,0,14.57,7.867ZM8.5,11.937a7.362,7.362,0,0,0-3.582-3.4A7.354,7.354,0,0,0,8.5,5.044a7.349,7.349,0,0,0,3.582,3.49A7.363,7.363,0,0,0,8.5,11.937Zm7.08,5.463-.2.455a.413.413,0,0,1-.759,0l-.2-.455a3.527,3.527,0,0,0-1.8-1.811L12,15.318a.425.425,0,0,1,0-.775l.583-.257a3.528,3.528,0,0,0,1.829-1.871l.206-.492a.413.413,0,0,1,.765,0l.206.492a3.528,3.528,0,0,0,1.829,1.871l.583.257a.425.425,0,0,1,0,.775l-.618.271A3.535,3.535,0,0,0,15.581,17.4Z" transform="translate(-6350.079 -8503.082)" fill="#881e87"/>
    </g>
  </g>
</svg>
