<svg id="Group_172862" data-name="Group 172862" xmlns="http://www.w3.org/2000/svg" xmlns:xlink="http://www.w3.org/1999/xlink" width="65.413" height="44" viewBox="0 0 65.413 44">
  <defs>
    <clipPath id="clip-path">
      <rect id="Rectangle_154653" data-name="Rectangle 154653" width="65.413" height="44" fill="none"/>
    </clipPath>
  </defs>
  <g id="Group_172861" data-name="Group 172861" clip-path="url(#clip-path)">
    <path id="Path_40352" data-name="Path 40352" d="M187.865,242.847v12.26c-11.658,0-21.115-3.686-21.115-8.246a1.213,1.213,0,0,1,.008-.172,1.793,1.793,0,0,1-.016-.2V235.46Z" transform="translate(-155.162 -219.107)" fill="#37375b"/>
    <path id="Path_40353" data-name="Path 40353" d="M492,246.494a.387.387,0,0,1-.016.133,1.184,1.184,0,0,1,.016.234c0,4.56-9.456,8.246-21.122,8.246v-12.26l17-5.942L492,235.46Z" transform="translate(-438.179 -219.107)" fill="#0d092d"/>
    <path id="Path_40354" data-name="Path 40354" d="M64.987,11.255a.635.635,0,0,1,0,1.2l-8.413,2.938-.312.109-2.436.851L49.7,17.8l-16.79,5.869a.635.635,0,0,1-.419,0L11.58,16.353,9.144,15.5l-.312-.109L.425,12.454a.635.635,0,0,1,0-1.2L32.493.036a.635.635,0,0,1,.419,0Z" transform="translate(0)" fill="#565577"/>
    <path id="Path_40355" data-name="Path 40355" d="M481,190.846l-2.706-7.395a2.277,2.277,0,0,0-.263-.9c.224-4.761.713-15.1.71-15.1a1.458,1.458,0,0,0-.995-1.449l-15.364-5.127a.7.7,0,0,0-.511,1.293l13.776,6.321.657,14a2.2,2.2,0,0,0-.271,1.007l-2.694,7.353a2.2,2.2,0,0,0,.351,1.932c.415.552.517.878,1.208.878h4.542c.691,0,.793-.325,1.208-.878a2.2,2.2,0,0,0,.351-1.932" transform="translate(-429.425 -149.657)" fill="#fa0"/>
    <path id="Path_40356" data-name="Path 40356" d="M642.341,430.64a3.338,3.338,0,1,0,3.369,3.338,3.028,3.028,0,0,0-3.369-3.338" transform="translate(-594.595 -400.732)" fill="#774e13"/>
  </g>
</svg>
