<svg xmlns="http://www.w3.org/2000/svg" width="25.5" height="34" viewBox="0 0 25.5 34">
  <path id="Icon_awesome-file-pdf" data-name="Icon awesome-file-pdf" d="M12.079,17.007a6.407,6.407,0,0,1-.133-3.114C12.5,13.892,12.451,16.343,12.079,17.007Zm-.113,3.134A30.642,30.642,0,0,1,10.08,24.3a24.452,24.452,0,0,1,4.177-1.454A8.6,8.6,0,0,1,11.966,20.141ZM5.718,28.429c0,.053.877-.359,2.318-2.67A9.178,9.178,0,0,0,5.718,28.429Zm10.751-17.8H25.5V32.406A1.59,1.59,0,0,1,23.906,34H1.594A1.59,1.59,0,0,1,0,32.406V1.594A1.59,1.59,0,0,1,1.594,0H14.875V9.031A1.6,1.6,0,0,0,16.469,10.625Zm-.531,11.409A6.665,6.665,0,0,1,13.1,18.461c.3-1.229.77-3.095.412-4.263a1.663,1.663,0,0,0-3.174-.452c-.332,1.215-.027,2.929.538,5.113a62.358,62.358,0,0,1-2.709,5.7c-.007,0-.007.007-.013.007-1.8.923-4.888,2.955-3.619,4.516a2.063,2.063,0,0,0,1.428.664c1.189,0,2.371-1.2,4.057-4.1A37.852,37.852,0,0,1,15.267,24.1a10.064,10.064,0,0,0,4.25,1.295,1.719,1.719,0,0,0,1.308-2.882c-.923-.9-3.606-.644-4.887-.478Zm9.1-15.061L18.527.465A1.593,1.593,0,0,0,17.4,0H17V8.5h8.5V8.095A1.589,1.589,0,0,0,25.035,6.973ZM20.114,23.926c.272-.179-.166-.79-2.842-.6C19.736,24.378,20.114,23.926,20.114,23.926Z" fill="#f02525"/>
</svg>
