<svg id="Icons" xmlns="http://www.w3.org/2000/svg" width="48" height="48" viewBox="0 0 48 48">
  <g id="Group_172833" data-name="Group 172833">
    <rect id="Rectangle_154499" data-name="Rectangle 154499" width="48" height="48" rx="4" fill="#fff"/>
    <rect id="Rectangle_154498" data-name="Rectangle 154498" width="48" height="48" rx="4" fill="#fff" opacity="0.5"/>
  </g>
  <g id="Component_99_1" data-name="Component 99 – 1" transform="translate(9.375 6.271)">
    <g id="Group_170567" data-name="Group 170567" transform="translate(-2.262 4.32)">
      <path id="Icon_simple-microsoftexcel" data-name="Icon simple-microsoftexcel" d="M25,3.389H16.466V4.968h2.516v2.5H16.466v.8h2.516v2.5H16.466v.818h2.516v2.366H16.466V14.9h2.516v2.371H16.466v.948h2.516V20.6H16.466v1.74H25c.135-.04.247-.2.338-.476a2.327,2.327,0,0,0,.137-.675V3.677c0-.136-.047-.218-.137-.246A1.168,1.168,0,0,0,25,3.389ZM23.893,20.6H19.8V18.216h4.094V20.6Zm0-3.331H19.8V14.9h4.094Zm0-3.32H19.8V11.593h4.094v2.355Zm0-3.184H19.8v-2.5h4.094v2.5h0Zm0-3.311H19.8V4.969h4.094V7.453ZM0,2.995V22.739l15.03,2.6V.329L0,3ZM8.909,17.93q-.086-.232-.8-1.977c-.477-1.163-.764-1.841-.848-2.034H7.229L5.617,17.756l-2.155-.145,2.556-4.776L3.678,8.058l2.2-.116L7.327,11.68h.029L9,7.772l2.27-.143L8.563,12.8l2.786,5.273-2.44-.143Z" transform="translate(2.262 -4.648)" fill="#01b27c"/>
      <g id="Icon_ionic-md-download" data-name="Icon ionic-md-download" transform="translate(8.249 12.442)" fill="#7a7480">
        <path d="M 15.00585746765137 19.37760925292969 L 14.66614723205566 19.06306076049805 L 6.410287380218506 11.4185905456543 L 5.474077701568604 10.55171012878418 L 6.749997615814209 10.55171012878418 L 10.96615791320801 10.55171012878418 L 10.96615791320801 4.5 L 10.96615791320801 4 L 11.46615791320801 4 L 18.54555702209473 4 L 19.04555702209473 4 L 19.04555702209473 4.5 L 19.04555702209473 10.55171012878418 L 23.26171684265137 10.55171012878418 L 24.53763771057129 10.55171012878418 L 23.60142707824707 11.4185905456543 L 15.34556770324707 19.06306076049805 L 15.00585746765137 19.37760925292969 Z" stroke="none"/>
        <path d="M 11.46615791320801 4.5 L 11.46615791320801 11.05171012878418 L 6.749998092651367 11.05171012878418 L 15.00585842132568 18.69618034362793 L 23.26171875 11.05171012878418 L 18.54555892944336 11.05171012878418 L 18.54555892944336 4.5 L 11.46615791320801 4.5 M 10.46615791320801 3.5 L 19.54555892944336 3.5 L 19.54555892944336 10.05171012878418 L 25.81354904174805 10.05171012878418 L 15.00585842132568 20.05903053283691 L 4.19816780090332 10.05171012878418 L 10.46615791320801 10.05171012878418 L 10.46615791320801 3.5 Z" stroke="none" fill="#fff"/>
      </g>
    </g>
  </g>
</svg>
