<svg xmlns="http://www.w3.org/2000/svg" xmlns:xlink="http://www.w3.org/1999/xlink" width="223.503" height="134.936" viewBox="0 0 223.503 134.936">
  <defs>
    <linearGradient id="linear-gradient" x1="-4.855" y1="0.5" x2="-3.855" y2="0.5" gradientUnits="objectBoundingBox">
      <stop offset="0" stop-color="#fff"/>
      <stop offset="0.754" stop-color="#fff"/>
    </linearGradient>
    <linearGradient id="linear-gradient-2" x1="-3.723" x2="-2.723" xlink:href="#linear-gradient"/>
    <clipPath id="clip-path">
      <path id="Path_59" data-name="Path 59" d="M1162.619,547.345a41.177,41.177,0,0,0-13.941-73.974c-14.533-3.424-30.1,1.186-44.572-2.5-15.616-3.974-27.165-16.759-37.91-28.768s-22.79-24.514-38.612-27.572c-18.333-3.543-37.491,7.5-46.923,23.617s-10.3,36.133-6.189,54.348c3.95,17.512,12.176,37.09,14.819,54.846Z" transform="translate(-972.137 -413.871)" fill="none"/>
    </clipPath>
  </defs>
  <g id="Group_173892" data-name="Group 173892" transform="translate(-848.248 -438.044)">
    <g id="Group_74" data-name="Group 74" transform="translate(87.148 24.173)">
      <g id="Group_4" data-name="Group 4" transform="translate(761.1 413.871)">
        <path id="Path_1" data-name="Path 1" d="M1162.619,547.345a41.177,41.177,0,0,0-13.941-73.974c-14.533-3.424-30.1,1.186-44.572-2.5-15.616-3.974-27.165-16.759-37.91-28.768s-22.79-24.514-38.612-27.572c-18.333-3.543-37.491,7.5-46.923,23.617s-10.3,36.133-6.189,54.348c3.95,17.512,12.176,37.09,14.819,54.846Z" transform="translate(-962.419 -413.871)" fill="#0097ac" opacity="0.242"/>
        <g id="Group_3" data-name="Group 3" transform="translate(0 11.289)">
          <g id="Group_2" data-name="Group 2" transform="translate(0 7.902)">
            <path id="Path_5" data-name="Path 5" d="M1885.958,961.963a8.74,8.74,0,0,0,2.849-.96,8.026,8.026,0,0,1,4.606-1.461,7.941,7.941,0,0,1,.884.05,4.2,4.2,0,0,1,3.913-2.885,3.964,3.964,0,0,1,2.06.579,4.346,4.346,0,0,1,2.86-1.084,4.282,4.282,0,0,1,.594.043,5.18,5.18,0,0,1,4.255-2.293,4.969,4.969,0,0,1,1.463.22,7.016,7.016,0,0,1,3.734-1.08,7.542,7.542,0,0,1,7.272,6.457c.059,0,.118-.007.177-.007a4.328,4.328,0,0,1,2.668.975v0a8.227,8.227,0,0,0,3.232,1.45c1.587.207,8.652.229,9.263.68h-60.452C1876.037,962.192,1884.138,962.17,1885.958,961.963Z" transform="translate(-1824.032 -947.455)" fill="url(#linear-gradient)"/>
            <path id="Path_6" data-name="Path 6" d="M769.184,836.945a7.812,7.812,0,0,0,2.439-.752,5.852,5.852,0,0,1,3.013-.831,5.919,5.919,0,0,1,.9.07,2.806,2.806,0,0,1,3.531-1.218,3.151,3.151,0,0,1,2.754-1.008,3.684,3.684,0,0,1,4.031-1.343,5.554,5.554,0,0,1,7.859.954,3.921,3.921,0,0,1,4.89,2.551,2.987,2.987,0,0,1,.955.218,1.538,1.538,0,0,1,.511.264q.112.07.22.148v0a5.9,5.9,0,0,0,2.253.948c1.106.135,6.03.15,6.456.445H761.1C761.633,837.094,767.8,837.08,769.184,836.945Z" transform="translate(-761.1 -830.654)" fill="url(#linear-gradient-2)"/>
          </g>
        </g>
      </g>
      <rect id="Rectangle_251" data-name="Rectangle 251" width="219.344" height="1.499" rx="0.75" transform="translate(765.259 547.307)" fill="#7a7480"/>
    </g>
    <g id="Group_173889" data-name="Group 173889" transform="translate(897 442.044)">
      <g id="Group_111" data-name="Group 111" transform="translate(1.122 0.586)">
        <path id="Path_99" data-name="Path 99" d="M1452.155,597.774c9.609.344,19.211,1.2,28.815,2.341s19.206,2.074,28.815,2.832v78.539c-9.71.147-19.42.465-29.13.879s-19.419.74-29.129.894c.178-14.244.564-28.489.635-42.726S1452.162,612.027,1452.155,597.774Z" transform="translate(-1451.526 -597.774)" fill="#e4e5e5" fill-rule="evenodd"/>
      </g>
      <g id="Group_112" data-name="Group 112" transform="translate(0 0)">
        <path id="Path_100" data-name="Path 100" d="M1442.425,592.688c9.6.3,19.207,1.107,28.8,2.246s19.206,2.126,28.81,2.918q0,19.663,0,39.335t-.012,39.318c-9.71.146-19.426.473-29.13.878s-19.419.714-29.117.826c.19-14.253.579-28.506.647-42.751S1442.425,606.942,1442.425,592.688Z" transform="translate(-1441.778 -592.688)" fill="#fff" fill-rule="evenodd"/>
      </g>
      <g id="Group_113" data-name="Group 113" transform="translate(2.245 2.866)">
        <path id="Path_101" data-name="Path 101" d="M1461.275,617.581c3.029.052,6.058.134,9.08.319s6.063.473,9.093.766v23c-3.03-.181-6.063-.357-9.093-.465s-6.051-.146-9.08-.172V617.581Z" transform="translate(-1461.275 -617.581)" fill="#e4e5e5" fill-rule="evenodd"/>
      </g>
      <g id="Group_132" data-name="Group 132" transform="translate(2.851 6.206)">
        <g id="Group_114" data-name="Group 114" transform="translate(5.265 4.64)">
          <path id="Path_102" data-name="Path 102" d="M1513.177,689.073c.029-.422.064-.835.1-1.257a2.152,2.152,0,0,1-.392-.474c-.244-.413-.4-.516-.552-.4-.06.043-.078.207-.048.4.066.345.261.861.327,1.17C1512.666,688.746,1512.951,689.581,1513.177,689.073Z" transform="translate(-1512.271 -686.896)" fill="#f9af79" fill-rule="evenodd"/>
        </g>
        <g id="Group_115" data-name="Group 115" transform="translate(2.749 8.271)">
          <path id="Path_103" data-name="Path 103" d="M1499.878,723.062l-1.692-.181q-2.912-.362-5.8-.706c-.659-.009-1.312-.026-1.966-.052a4.087,4.087,0,0,0,3.635-2.049,3.617,3.617,0,0,0,.066-1.635c.558.034,1.117.069,1.681.094s1.121.052,1.686.06A4.142,4.142,0,0,0,1499.878,723.062Z" transform="translate(-1490.417 -718.44)" fill="#f9af79" fill-rule="evenodd"/>
        </g>
        <g id="Group_116" data-name="Group 116" transform="translate(6.034 8.271)">
          <path id="Path_104" data-name="Path 104" d="M1518.948,720.411a.636.636,0,0,0,.35-.336,3.615,3.615,0,0,0,.065-1.635c.558.034,1.117.069,1.681.094s1.121.052,1.686.06c-.006.026-.018.086-.03.155a1.547,1.547,0,0,1-.018.164,3.283,3.283,0,0,1-.232.249,1.857,1.857,0,0,0-.261.258,5.587,5.587,0,0,1-.374.534,2.4,2.4,0,0,1-1.14.456A3.876,3.876,0,0,1,1518.948,720.411Z" transform="translate(-1518.948 -718.44)" fill="#f27458" fill-rule="evenodd"/>
        </g>
        <g id="Group_117" data-name="Group 117" transform="translate(5.773 1.447)">
          <path id="Path_105" data-name="Path 105" d="M1519.07,667.148h-.029a1.589,1.589,0,0,1-.719-.121c-.179-.094-.268-.292-.523-.559-.214-.232-.594-.482-.689-.74a6.226,6.226,0,0,1-.161-1.222,11.08,11.08,0,0,1-.261-1.2c-.024-.448.035-.9.023-1.412a7.644,7.644,0,0,1,.029-1.249,1.36,1.36,0,0,1,.452-.869h0a1.866,1.866,0,0,1,.487-.335l.006-.009a.093.093,0,0,0,.042-.017.018.018,0,0,0,.018-.009c.012,0,.018-.008.029-.017h.018c.012-.009.024-.009.036-.018s.017-.008.024-.008a.081.081,0,0,1,.041-.018.019.019,0,0,0,.018-.008c.018-.008.035-.008.059-.017h0a2.821,2.821,0,0,1,1.539-.086,2.883,2.883,0,0,1,1.36.723,1.706,1.706,0,0,1,.44.921,6.881,6.881,0,0,1,.035,1.248c-.018.5.054.956.03,1.394-.018.4-.2.766-.261,1.179a7.592,7.592,0,0,1-.154,1.2c-.1.241-.481.456-.689.672-.255.241-.343.439-.523.508A1.334,1.334,0,0,1,1519.07,667.148Z" transform="translate(-1516.683 -659.162)" fill="#f9af79" fill-rule="evenodd"/>
        </g>
        <g id="Group_118" data-name="Group 118" transform="translate(0 9.192)">
          <path id="Path_106" data-name="Path 106" d="M1472.922,726.44c-.113.413-.25.775-.4,1.17-.843.3-1.775.869-2.381.99-2.381.508-2.744,1.506-2.832,3.908-.3,1.636-.542,3.228-.772,4.846,1.146.009,2.293.026,3.438.043a25,25,0,0,0,.571-3.925c.671.293,1.336.594,2.007.886,1.05.482,2.1.956,3.153,1.446.528.6,1.058,1.214,1.593,1.808,1.484.069,2.975.155,4.46.241a36.5,36.5,0,0,1-.577-4.476c.119-2.2-.314-3.133-1.882-3.615-.689-.379-1.5-.715-2.387-1.283-.131-.387-.261-.783-.386-1.188a4.928,4.928,0,0,1-1.247,1.979C1473.753,728.092,1473.011,727.215,1472.922,726.44Z" transform="translate(-1466.538 -726.44)" fill="#006e74" fill-rule="evenodd"/>
        </g>
        <g id="Group_119" data-name="Group 119" transform="translate(3.432 14.873)">
          <path id="Path_107" data-name="Path 107" d="M1496.471,775.785c-.041.129-.083.249-.118.37-.005,1.481.208,2.944.089,4.441-.011.155-.018.31-.03.465,3.148.078,6.295.181,9.443.328a11.988,11.988,0,0,0-.5-4.648c-.973-.112-1.947-.215-2.921-.327C1500.439,776.181,1498.456,775.983,1496.471,775.785Z" transform="translate(-1496.353 -775.785)" fill="#d7e0e3" fill-rule="evenodd"/>
        </g>
        <g id="Group_120" data-name="Group 120" transform="translate(12.228 15.819)">
          <path id="Path_108" data-name="Path 108" d="M1573.461,788.662a11.974,11.974,0,0,0-.5-4.648.828.828,0,0,1-.207-.009,10.412,10.412,0,0,1,.231,4.631Z" transform="translate(-1572.754 -784.005)" fill="#fff" fill-rule="evenodd"/>
        </g>
        <g id="Group_121" data-name="Group 121" transform="translate(3.445 14.907)">
          <path id="Path_109" data-name="Path 109" d="M1496.761,776.082c.035.473.077.938.118,1.394-.012,1.48-.272,1.859-.386,3.366-.012.163-.023.318-.035.482.3.009.612.009.915.017.047-.559.066-1.084.071-1.592A8.048,8.048,0,0,0,1496.761,776.082Z" transform="translate(-1496.458 -776.082)" fill="#fff" fill-rule="evenodd"/>
        </g>
        <g id="Group_122" data-name="Group 122" transform="translate(5.668 9.235)">
          <path id="Path_110" data-name="Path 110" d="M1516.485,726.813a5.046,5.046,0,0,1-.707,1.283,5.455,5.455,0,0,0,1.467,2.633c-.647-1.136-1.324-2.022-1.229-2.522.089-.224.374-.775.558-1.11C1516.545,727,1516.515,726.916,1516.485,726.813Z" transform="translate(-1515.776 -726.813)" fill="#003c51" fill-rule="evenodd"/>
        </g>
        <g id="Group_123" data-name="Group 123" transform="translate(7.109 11.775)">
          <path id="Path_111" data-name="Path 111" d="M1528.287,750.273a8.123,8.123,0,0,1,1.229-1.4c.185.034.374.06.571.086.469.37.676.559,1.015,1.79-.208-.215-.409-.43-.611-.663-.244-.155-.476-.31-.712-.465l-.363.026c-.13.077-.255.146-.374.215A6.83,6.83,0,0,0,1528.287,750.273Z" transform="translate(-1528.287 -748.87)" fill="#003c51" fill-rule="evenodd"/>
        </g>
        <g id="Group_124" data-name="Group 124" transform="translate(7.75 11.796)">
          <path id="Path_112" data-name="Path 112" d="M1534.443,749.065a2.733,2.733,0,0,0-.588.611,5.868,5.868,0,0,0,.511.774c0,.129,0,.25.005.37.019,2.1-.089,4.441-.189,6.7.576.026,1.152.035,1.734.06-.154-2.332-.445-4.923-.689-7a2.3,2.3,0,0,1,.369-.749.9.9,0,0,0-1.153-.775Z" transform="translate(-1533.855 -749.052)" fill="#003c51" fill-rule="evenodd"/>
        </g>
        <g id="Group_125" data-name="Group 125" transform="translate(5.197)">
          <path id="Path_113" data-name="Path 113" d="M1515.391,649.641c-.517-.078-.85-.284-1.378-.061-.416-.077-.909-.189-1.063-.009-.1.1-.184.31-.077.723-.059-.069-.125-.138-.19-.215a3.8,3.8,0,0,0-.113,1.136c-.078-.069-.154-.129-.232-.207.024.86.113,1.068.142,1.868-.345-.646-.184-1.412-.552-1.7a5.434,5.434,0,0,1,.107-2.075c-.077.052-.154.1-.232.138a2.73,2.73,0,0,1,.209-.422c-.125.009-.214.086-.333.224.236-.482.665-.688,1-1.162a.554.554,0,0,0-.41.138,1.285,1.285,0,0,1,.92-.775.9.9,0,0,1-.154-.4,1.339,1.339,0,0,0,1.158.25.5.5,0,0,1-.213-.5c.1.249.237.284.433.352a2.57,2.57,0,0,1-.131-.232,4.943,4.943,0,0,0,1.063.568c.261.146,1.194.758,1.254.292.083.224.047.336-.09.4a2.5,2.5,0,0,0,.44,0c-.078.035-.154.061-.237.095.606.4.511.654.612,1.42a2.1,2.1,0,0,0-.261-.706c.083.318.232.731.273.981a3.543,3.543,0,0,1-.1.956c-.012.129.066.275.047.4-.059.362-.094.646-.118.99a5.335,5.335,0,0,1-.078-.628,8.4,8.4,0,0,1-.35,1.842,8.445,8.445,0,0,0,.012-1.162,13.1,13.1,0,0,0-.054-1.4c-.113-.981-.416-1.213-.665-1.2C1515.8,649.555,1515.527,649.658,1515.391,649.641Z" transform="translate(-1511.679 -646.594)" fill="#231f20" fill-rule="evenodd"/>
        </g>
        <g id="Group_126" data-name="Group 126" transform="translate(9.161 5.352)">
          <path id="Path_114" data-name="Path 114" d="M1546.29,693.746c.16.035.344-.593-.023-.663C1546.064,693.049,1546.04,693.695,1546.29,693.746Z" transform="translate(-1546.109 -693.082)" fill="#231f20" fill-rule="evenodd"/>
        </g>
        <g id="Group_127" data-name="Group 127" transform="translate(6.593 4.892)">
          <path id="Path_115" data-name="Path 115" d="M1523.923,689.732c-.154-.018-.208-.706.16-.637C1524.285,689.138,1524.173,689.783,1523.923,689.732Z" transform="translate(-1523.805 -689.09)" fill="#231f20" fill-rule="evenodd"/>
        </g>
        <g id="Group_128" data-name="Group 128" transform="translate(9.043 4.747)">
          <path id="Path_116" data-name="Path 116" d="M1545.293,687.833c-.244-.035-.261.172-.089.275a5.263,5.263,0,0,0,.992.353A1.339,1.339,0,0,0,1545.293,687.833Z" transform="translate(-1545.09 -687.829)" fill="#231f20" fill-rule="evenodd"/>
        </g>
        <g id="Group_129" data-name="Group 129" transform="translate(6.196 4.286)">
          <path id="Path_117" data-name="Path 117" d="M1521.339,683.83c.25.052.232.275.042.31-.082.008-1.086.1-1.015.017A1.249,1.249,0,0,1,1521.339,683.83Z" transform="translate(-1520.362 -683.822)" fill="#231f20" fill-rule="evenodd"/>
        </g>
        <g id="Group_130" data-name="Group 130" transform="translate(7.791 5.536)">
          <path id="Path_118" data-name="Path 118" d="M1534.278,696.016c.558.2.487-.086.333-.06-.517.086-.024-.215-.107-1.2-.012-.1-.118-.095-.118-.009-.007.06.011.276.005.336C1534.332,695.869,1534.1,695.947,1534.278,696.016Z" transform="translate(-1534.212 -694.684)" fill="#ed7d57" fill-rule="evenodd"/>
        </g>
        <g id="Group_131" data-name="Group 131" transform="translate(7.236 7.565)">
          <path id="Path_119" data-name="Path 119" d="M1529.4,712.4c.719,1.524,1.5.224,1.282.172C1529.594,712.321,1529.314,712.209,1529.4,712.4Z" transform="translate(-1529.388 -712.303)" fill="#fff" fill-rule="evenodd"/>
        </g>
      </g>
      <g id="Group_133" data-name="Group 133" transform="translate(22.027 4.536)">
        <path id="Path_120" data-name="Path 120" d="M1633.107,632.087c5.618.637,11.234,1.321,16.854,1.919s11.236,1.084,16.854,1.524v2.556c-5.618-.422-11.244-.887-16.854-1.454s-11.236-1.223-16.854-1.834Z" transform="translate(-1633.107 -632.087)" fill="#e4e5e5" fill-rule="evenodd"/>
      </g>
      <g id="Group_134" data-name="Group 134" transform="translate(22.027 11.138)">
        <path id="Path_121" data-name="Path 121" d="M1633.107,689.432c5.618.568,11.234,1.174,16.854,1.7s11.236.964,16.854,1.36v2.556c-5.618-.379-11.243-.788-16.854-1.291s-11.236-1.085-16.854-1.618Z" transform="translate(-1633.107 -689.432)" fill="#e4e5e5" fill-rule="evenodd"/>
      </g>
      <g id="Group_135" data-name="Group 135" transform="translate(22.027 17.739)">
        <path id="Path_122" data-name="Path 122" d="M1633.107,746.776c5.618.49,11.234,1.024,16.854,1.489s11.236.843,16.854,1.2v2.556c-5.618-.336-11.243-.694-16.854-1.127s-11.236-.939-16.854-1.4Z" transform="translate(-1633.107 -746.776)" fill="#e4e5e5" fill-rule="evenodd"/>
      </g>
      <g id="Group_136" data-name="Group 136" transform="translate(22.027 24.341)">
        <path id="Path_123" data-name="Path 123" d="M1633.107,804.116c5.618.422,11.235.878,16.854,1.274s11.236.723,16.854,1.033v2.548c-5.618-.284-11.243-.586-16.854-.956s-11.236-.792-16.854-1.187Z" transform="translate(-1633.107 -804.116)" fill="#e4e5e5" fill-rule="evenodd"/>
      </g>
      <g id="Group_137" data-name="Group 137" transform="translate(3.296 31.476)">
        <path id="Path_124" data-name="Path 124" d="M1470.406,866.1c8.735.172,17.478.56,26.214,1.084s17.483,1,26.225,1.4v2.565q-13.113-.568-26.225-1.291c-8.735-.477-17.478-.826-26.214-.981Z" transform="translate(-1470.406 -866.098)" fill="#e4e5e5" fill-rule="evenodd"/>
      </g>
      <g id="Group_138" data-name="Group 138" transform="translate(3.296 39.412)">
        <path id="Path_125" data-name="Path 125" d="M1470.406,935.028c8.735.12,17.479.4,26.214.8s17.483.758,26.225,1.085v2.556q-13.113-.439-26.225-.955c-8.735-.349-17.478-.6-26.214-.706Z" transform="translate(-1470.406 -935.028)" fill="#e4e5e5" fill-rule="evenodd"/>
      </g>
      <g id="Group_139" data-name="Group 139" transform="translate(3.272 47.348)">
        <path id="Path_126" data-name="Path 126" d="M1470.216,1003.958q13.1.116,26.219.526,13.112.394,26.225.748v2.557q-13.121-.31-26.237-.637t-26.226-.421C1470.2,1005.808,1470.209,1004.888,1470.216,1003.958Z" transform="translate(-1470.197 -1003.958)" fill="#e4e5e5" fill-rule="evenodd"/>
      </g>
      <g id="Group_140" data-name="Group 140" transform="translate(3.147 55.283)">
        <path id="Path_127" data-name="Path 127" d="M1469.156,1072.889q13.139.039,26.267.249t26.274.414v2.556q-13.158-.18-26.3-.3t-26.285-.146C1469.133,1074.74,1469.145,1073.818,1469.156,1072.889Z" transform="translate(-1469.114 -1072.889)" fill="#e4e5e5" fill-rule="evenodd"/>
      </g>
      <g id="Group_141" data-name="Group 141" transform="translate(2.969 63.185)">
        <path id="Path_128" data-name="Path 128" d="M1467.63,1141.557q13.167-.026,26.339-.035t26.344.086v2.548q-13.193-.052-26.38.034-13.183.07-26.368.128C1467.589,1143.4,1467.607,1142.486,1467.63,1141.557Z" transform="translate(-1467.565 -1141.522)" fill="#e4e5e5" fill-rule="evenodd"/>
      </g>
    </g>
    <g id="Group_173890" data-name="Group 173890" transform="translate(918.607 451.682)">
      <g id="Group_143" data-name="Group 143" transform="translate(35.366 12.857)">
        <path id="Path_129" data-name="Path 129" d="M1942.654,791.148a28.875,28.875,0,0,0-2.846-3.021,5.228,5.228,0,0,0-2.779.477,2.72,2.72,0,0,0-.249,2.2c.226.346,1.072-.026,1.452.181a4.26,4.26,0,0,1,.843.685,14.582,14.582,0,0,0,1.418,1.009Z" transform="translate(-1936.653 -788.083)" fill="#f9af79" fill-rule="evenodd"/>
      </g>
      <g id="Group_144" data-name="Group 144" transform="translate(38.806 15.922)">
        <path id="Path_130" data-name="Path 130" d="M1993.29,819.152s-13.815,3.141-15.831,1.93-8.366-6.379-8.366-6.379l-2.561,1.669s4.227,6.715,7.34,9.385,9.51,4.622,9.51,4.622Z" transform="translate(-1966.533 -814.703)" fill="#881e87" fill-rule="evenodd"/>
      </g>
      <g id="Group_145" data-name="Group 145" transform="translate(53.982 18.691)">
        <path id="Path_131" data-name="Path 131" d="M2109.844,838.753l-4.8,9.117-1.148.082-.517,1.454-4.816,14.512S2095.893,845.48,2109.844,838.753Z" transform="translate(-2098.355 -838.753)" fill="#881d87" fill-rule="evenodd"/>
      </g>
      <g id="Group_146" data-name="Group 146" transform="translate(51.632 26.751)">
        <path id="Path_132" data-name="Path 132" d="M2083.766,908.767s-5.316,19.589-5.826,38.28c0,0,4.405,1.536,11.331.32C2096.228,946.145,2083.766,908.767,2083.766,908.767Z" transform="translate(-2077.94 -908.767)" fill="#5c115b" fill-rule="evenodd"/>
      </g>
      <g id="Group_147" data-name="Group 147" transform="translate(81.631 110.146)">
        <path id="Path_133" data-name="Path 133" d="M2338.568,1642.843h4.777a2.9,2.9,0,0,0,1.307-2.188c.233-1.539,1.958-2.378,2.33-3.637s-1.539-3.03-1.539-3.03l-.32-.413-.331-.427-3.171.746s-.077.755-.126,1.717c-.034.694-.054,1.5-.015,2.2.095,1.678-.468,3.486-1.959,3.812C2338.417,1641.865,2338.466,1642.518,2338.568,1642.843Z" transform="translate(-2338.519 -1633.148)" fill="#231f20" fill-rule="evenodd"/>
      </g>
      <g id="Group_148" data-name="Group 148" transform="translate(53.956 114.255)">
        <path id="Path_134" data-name="Path 134" d="M2098.127,1674.429h10.925c.525-.641.33-3.008.253-3.78-.018-.156-.03-.246-.03-.246s-3.73-2.984-4.243-.7a1.8,1.8,0,0,1-.055.21c-.644,2.138-3.541,3.108-5.211,3.379A1.9,1.9,0,0,0,2098.127,1674.429Z" transform="translate(-2098.127 -1668.843)" fill="#231f20" fill-rule="evenodd"/>
      </g>
      <g id="Group_149" data-name="Group 149" transform="translate(56.037 57.883)">
        <path id="Path_135" data-name="Path 135" d="M2116.205,1180.163s.568,7.067,1.233,15.563c.906,11.539,1.994,25.716,2.1,28.4.188,4.663.933,12.122.933,12.122s1.77,1.773,5.316,1.026a122.211,122.211,0,0,0,4.06-21.914c.014-.185.027-.371.041-.557.841-11.469,2.144-35.619,2.144-35.619Z" transform="translate(-2116.205 -1179.185)" fill="#003c51" fill-rule="evenodd"/>
      </g>
      <g id="Group_150" data-name="Group 150" transform="translate(56.037 57.883)">
        <path id="Path_136" data-name="Path 136" d="M2116.205,1180.163s.568,7.067,1.233,15.563l12.409,19.635c.014-.185.027-.371.041-.557.841-11.469,2.144-35.619,2.144-35.619Z" transform="translate(-2116.205 -1179.185)" fill="#003c51" fill-rule="evenodd"/>
      </g>
      <g id="Group_151" data-name="Group 151" transform="translate(58.626 55.085)">
        <path id="Path_137" data-name="Path 137" d="M2138.687,1159.5s10.209,25.6,16.923,37.625,8.813,15.385,8.813,15.385,3.844-1.539,4.193-2.588c0,0-2.566-23.222-7.062-28.883-2.54-3.2-5.524-12.8-5.666-16.155s-.908-10-.908-10Z" transform="translate(-2138.687 -1154.881)" fill="#003c51" fill-rule="evenodd"/>
      </g>
      <g id="Group_152" data-name="Group 152" transform="translate(61.168 11.747)">
        <path id="Path_138" data-name="Path 138" d="M2160.775,789.08c3.99,1.259,10.892-2.138,10.892-2.138a10.383,10.383,0,0,1-3.485-8.5l-3.086,2.487-2.1,1.689a25.393,25.393,0,0,0,.237,2.74c.042.318.093.662.149,1.029a.737.737,0,0,1-.335.744A9.438,9.438,0,0,0,2160.775,789.08Z" transform="translate(-2160.775 -778.44)" fill="#f9af79" fill-rule="evenodd"/>
      </g>
      <g id="Group_153" data-name="Group 153" transform="translate(55.587 18.691)">
        <path id="Path_139" data-name="Path 139" d="M2112.3,879.512a.646.646,0,0,0,.42.161c1.5-.021,5.867.811,9.563.432a27.538,27.538,0,0,0,8.839-2.551c.394-.175,1.3-.659,1.278-1.1-.013-.482-.061-1.18-.122-2.06a110.716,110.716,0,0,1-.218-14.384c.063-1.13.1-2.251.1-3.354.031-8.224-1.6-15.456-4.876-17.9a27.1,27.1,0,0,1-3.866,1.787c-1.55.5-2.348.4-3.151-.137a9.769,9.769,0,0,0-2.233,1.507,15.808,15.808,0,0,0-3.557,7.144,61.3,61.3,0,0,0-1.537,11.843C2112.849,863.215,2112.205,879.433,2112.3,879.512Z" transform="translate(-2112.294 -838.753)" fill="#fff" fill-rule="evenodd"/>
      </g>
      <g id="Group_154" data-name="Group 154" transform="translate(59.153 18.691)">
        <path id="Path_140" data-name="Path 140" d="M2162.416,883.324c-10.07,6.316-18.286,3.114-18.286,3.114-1.473-11.522-.658-25.427-.465-28.819.487-14.888,11.032-18.866,11.032-18.866l4.39,13.587.65,6.046,1.173,10.92Z" transform="translate(-2143.267 -838.753)" fill="#881e87" fill-rule="evenodd"/>
      </g>
      <g id="Group_155" data-name="Group 155" transform="translate(63.393 14.174)">
        <path id="Path_141" data-name="Path 141" d="M2180.1,801.266a25.416,25.416,0,0,0,.238,2.74c2.322-.4,4.957-4.151,4.957-4.151a7.393,7.393,0,0,0-3.1-.277Z" transform="translate(-2180.096 -799.518)" fill="#ed7d57" fill-rule="evenodd"/>
      </g>
      <g id="Group_156" data-name="Group 156" transform="translate(59.455 3.623)">
        <path id="Path_142" data-name="Path 142" d="M2147.459,721.186s8.046,1.337,8.8-3.687,2.3-8.234-2.8-9.3-6.4.7-7.052,2.316S2145.385,720.709,2147.459,721.186Z" transform="translate(-2145.889 -707.874)" fill="#f9af79" fill-rule="evenodd"/>
      </g>
      <g id="Group_157" data-name="Group 157" transform="translate(55.61 0)">
        <path id="Path_143" data-name="Path 143" d="M2126.875,689.235c.249.232-.987-.205-.854-1.342s.13-2.624-.794-2.347-.971,1.017-1.352.585-.386-2.253-3.138-2.381-4.4.449-5.678-.113a8.149,8.149,0,0,1-2.571-2.664s1.586.857,2.139,1.077a3.436,3.436,0,0,1,.865-4.54c2.469-2,4.989-.691,6.419-.605,3.151.191,7.936,1.738,8.964,3.809S2128.137,685.818,2126.875,689.235Z" transform="translate(-2112.489 -676.403)" fill="#231f20" fill-rule="evenodd"/>
      </g>
      <g id="Group_158" data-name="Group 158" transform="translate(68.424 34.072)">
        <path id="Path_144" data-name="Path 144" d="M2232.173,987.526c-2.207-5.647-8.372-15.172-8.372-15.172l7.2,4.252Z" transform="translate(-2223.801 -972.354)" fill="#881e87" fill-rule="evenodd"/>
      </g>
      <g id="Group_159" data-name="Group 159" transform="translate(52.121 18.742)">
        <path id="Path_145" data-name="Path 145" d="M2083.814,876.715a11.319,11.319,0,0,1-1.629-2.011s7.06-9.631,7.624-10.623a27.527,27.527,0,0,0,3.86-9.348c1.1-6.744,4.542-9.669,7.045-15.539,8.8,7.586,3.978,12.542-5.287,28.085-2.446,4.1-10.031,10.391-10.031,10.391A4.721,4.721,0,0,1,2083.814,876.715Z" transform="translate(-2082.185 -839.195)" fill="#881e87" fill-rule="evenodd"/>
      </g>
      <g id="Group_160" data-name="Group 160" transform="translate(59.093 18.691)">
        <path id="Path_146" data-name="Path 146" d="M2154.235,838.753l-4.806,9.117-2.464-.9.8,2.432-4.818,14.512S2140.284,845.48,2154.235,838.753Z" transform="translate(-2142.744 -838.753)" fill="#5c115b" fill-rule="evenodd"/>
      </g>
      <g id="Group_161" data-name="Group 161" transform="translate(63.302 10.109)">
        <path id="Path_147" data-name="Path 147" d="M2179.659,765.383c.291.036.652-1.087-.054-1.174C2179.226,764.164,2179.183,765.322,2179.659,765.383Z" transform="translate(-2179.312 -764.208)" fill="#20386f" fill-rule="evenodd"/>
      </g>
      <g id="Group_162" data-name="Group 162" transform="translate(60.109 9.69)">
        <path id="Path_148" data-name="Path 148" d="M2151.791,761.7c-.291-.036-.387-1.211.32-1.125C2152.49,760.622,2152.27,761.761,2151.791,761.7Z" transform="translate(-2151.571 -760.572)" fill="#20386f" fill-rule="evenodd"/>
      </g>
      <g id="Group_163" data-name="Group 163" transform="translate(63.075 9.059)">
        <path id="Path_149" data-name="Path 149" d="M2177.73,755.093c-.472-.041-.5.35-.174.5a10.607,10.607,0,0,0,1.888.525A2.422,2.422,0,0,0,2177.73,755.093Z" transform="translate(-2177.337 -755.09)" fill="#20386f" fill-rule="evenodd"/>
      </g>
      <g id="Group_164" data-name="Group 164" transform="translate(59.358 8.603)">
        <path id="Path_150" data-name="Path 150" d="M2146.908,751.139c.471.054.431.443.079.521-.166.036-2.064.268-1.932.118A2.428,2.428,0,0,1,2146.908,751.139Z" transform="translate(-2145.048 -751.126)" fill="#20386f" fill-rule="evenodd"/>
      </g>
      <g id="Group_165" data-name="Group 165" transform="translate(60.179 10.597)">
        <path id="Path_151" data-name="Path 151" d="M2152.27,770.542c.883.644.934.147.635.1-.988-.16.091-.367.527-2.024.044-.174-.151-.223-.207-.084-.038.1-.137.46-.186.56C2152.448,770.326,2151.986,770.335,2152.27,770.542Z" transform="translate(-2152.184 -768.453)" fill="#ed7d57" fill-rule="evenodd"/>
      </g>
      <g id="Group_166" data-name="Group 166" transform="translate(60.537 13.514)">
        <path id="Path_152" data-name="Path 152" d="M2155.315,793.954c1.371,2.625,2.847.27,2.44.2C2155.684,793.8,2155.147,793.634,2155.315,793.954Z" transform="translate(-2155.286 -793.784)" fill="#fff" fill-rule="evenodd"/>
      </g>
      <g id="Group_173" data-name="Group 173" transform="translate(0.001 5.871)">
        <g id="Group_171" data-name="Group 171">
          <g id="Group_167" data-name="Group 167" transform="translate(36.633 36.423)">
            <path id="Path_153" data-name="Path 153" d="M1975.758,1073.307l-28.1-27.734q.465-.42.913-.871c.3-.3.582-.61.859-.924l28.1,27.734a1.269,1.269,0,0,1,.021,1.791h0A1.271,1.271,0,0,1,1975.758,1073.307Z" transform="translate(-1947.662 -1043.779)" fill="#ecece1" fill-rule="evenodd"/>
          </g>
          <g id="Group_168" data-name="Group 168">
            <path id="Path_154" data-name="Path 154" d="M1636.039,765.254a22.111,22.111,0,0,0,30.361.669q.466-.419.912-.872t.859-.922a22.113,22.113,0,1,0-32.132,1.125Zm30.025-1.434a20.362,20.362,0,1,1-.187-28.795A20.36,20.36,0,0,1,1666.064,763.821Z" transform="translate(-1629.459 -727.403)" fill="#006e74" fill-rule="evenodd"/>
          </g>
          <g id="Group_169" data-name="Group 169" transform="translate(1.515 1.515)" opacity="0.46">
            <path id="Path_155" data-name="Path 155" d="M1650.73,777.471a20.362,20.362,0,1,0-.187-28.8A20.36,20.36,0,0,0,1650.73,777.471Z" transform="translate(-1644.435 -742.382)" fill="#e4e5e5" fill-rule="evenodd"/>
            <path id="Path_156" data-name="Path 156" d="M1663.218,781.761h0a20.6,20.6,0,1,1,14.66-6.128A20.472,20.472,0,0,1,1663.217,781.761Zm0-40.723a20.125,20.125,0,1,0,14.137,5.8A19.982,19.982,0,0,0,1663.218,741.038Z" transform="translate(-1642.619 -740.565)" fill="#231f20"/>
          </g>
          <g id="Group_170" data-name="Group 170" transform="translate(11.166 1.768)" opacity="0.35">
            <path id="Path_157" data-name="Path 157" d="M1733.092,773.4l-2.764,8.807c.26.1.52.187.783.271l2.493-7.948,8.609-27.436,1.092-3.479q-.4-.12-.8-.223l-.407,1.3-9.008,28.708Zm-5.193,7.722q-.736-.388-1.446-.841L1731,765.805l7.23-23.042q.835.034,1.666.135l-8.2,26.132-3.795,12.093Zm3.795-12.093q-.123-.489-.243-1.006Z" transform="translate(-1726.453 -742.764)" fill="#fff" fill-rule="evenodd"/>
          </g>
        </g>
        <g id="Group_172" data-name="Group 172" transform="translate(41.911 41.413)">
          <path id="Path_158" data-name="Path 158" d="M1995.226,1087.347l-1.5,1.521a.945.945,0,0,0,.115,1.319l23.787,23.464a.946.946,0,0,0,1.321.1l1.5-1.52a.945.945,0,0,0-.115-1.319l-23.787-23.463A.945.945,0,0,0,1995.226,1087.347Z" transform="translate(-1993.507 -1087.121)" fill="#dbd3bd" fill-rule="evenodd"/>
        </g>
      </g>
      <g id="Group_174" data-name="Group 174" transform="translate(50.153 54.849)">
        <path id="Path_159" data-name="Path 159" d="M2067.858,1152.835a28.692,28.692,0,0,0-2.746,3.093,5.2,5.2,0,0,0,.72,2.716,2.708,2.708,0,0,0,2.2.052c.323-.255-.12-1.06.052-1.458a4.174,4.174,0,0,1,.6-.9,14.534,14.534,0,0,0,.876-1.5Z" transform="translate(-2065.094 -1152.835)" fill="#f9af79" fill-rule="evenodd"/>
      </g>
    </g>
  </g>
</svg>
