<?xml version="1.0" encoding="UTF-8"?>
<svg version="1.1" xmlns="http://www.w3.org/2000/svg" width="40" height="40">
<path d="M0 0 C1.28455078 -0.02900391 2.56910156 -0.05800781 3.89257812 -0.08789062 C5.13072266 -0.09626953 6.36886719 -0.10464844 7.64453125 -0.11328125 C9.3457312 -0.13515503 9.3457312 -0.13515503 11.08129883 -0.1574707 C14.85296461 0.41318532 16.48345982 1.67773916 19.1875 4.3125 C21.46422657 8.86595314 20.46271299 15.1260555 20.5 20.125 C20.52900391 21.40955078 20.55800781 22.69410156 20.58789062 24.01757812 C20.59626953 25.25572266 20.60464844 26.49386719 20.61328125 27.76953125 C20.62786377 28.90366455 20.64244629 30.03779785 20.6574707 31.20629883 C20.08681468 34.97796461 18.82226084 36.60845982 16.1875 39.3125 C11.63404686 41.58922657 5.3739445 40.58771299 0.375 40.625 C-0.90955078 40.65400391 -2.19410156 40.68300781 -3.51757812 40.71289062 C-4.75572266 40.72126953 -5.99386719 40.72964844 -7.26953125 40.73828125 C-8.9707312 40.76015503 -8.9707312 40.76015503 -10.70629883 40.7824707 C-14.47796461 40.21181468 -16.10845982 38.94726084 -18.8125 36.3125 C-21.08922657 31.75904686 -20.08771299 25.4989445 -20.125 20.5 C-20.15400391 19.21544922 -20.18300781 17.93089844 -20.21289062 16.60742188 C-20.22126953 15.36927734 -20.22964844 14.13113281 -20.23828125 12.85546875 C-20.25286377 11.72133545 -20.26744629 10.58720215 -20.2824707 9.41870117 C-19.71181468 5.64703539 -18.44726084 4.01654018 -15.8125 1.3125 C-11.25904686 -0.96422657 -4.9989445 0.03728701 0 0 Z " fill="#71482D" transform="translate(19.8125,-0.3125)"/>
<path d="M0 0 C1.28455078 -0.02900391 2.56910156 -0.05800781 3.89257812 -0.08789062 C5.13072266 -0.09626953 6.36886719 -0.10464844 7.64453125 -0.11328125 C9.3457312 -0.13515503 9.3457312 -0.13515503 11.08129883 -0.1574707 C14.85296461 0.41318532 16.48345982 1.67773916 19.1875 4.3125 C20.46611615 6.86973229 20.30086609 8.67987102 20.28515625 11.5390625 C20.28193359 12.5703125 20.27871094 13.6015625 20.27539062 14.6640625 C20.26282227 16.28441406 20.26282227 16.28441406 20.25 17.9375 C20.24548828 19.02546875 20.24097656 20.1134375 20.23632812 21.234375 C20.22451776 23.92713789 20.20804778 26.61979188 20.1875 29.3125 C16.25424805 25.65865939 15.37773574 21.91591555 14.75 16.625 C14.14898554 13.0856926 13.7932448 12.51736099 11.1875 10.3125 C10.1875 8.64583333 9.1875 6.97916667 8.1875 5.3125 C7.10416667 3.39583333 7.10416667 3.39583333 5.1875 2.3125 C1.3217058 1.73263087 -1.19028303 1.52304328 -4.71484375 3.23828125 C-12.09004781 8.70916566 -14.79541481 18.6940451 -16.8125 27.3125 C-16.8125 28.3025 -16.8125 29.2925 -16.8125 30.3125 C-17.4725 30.3125 -18.1325 30.3125 -18.8125 30.3125 C-19.1425 31.3025 -19.4725 32.2925 -19.8125 33.3125 C-19.92879782 28.91688961 -19.99978634 24.52167571 -20.0625 20.125 C-20.09601562 18.87912109 -20.12953125 17.63324219 -20.1640625 16.34960938 C-20.17695313 15.14755859 -20.18984375 13.94550781 -20.203125 12.70703125 C-20.22407227 11.60206299 -20.24501953 10.49709473 -20.26660156 9.35864258 C-19.7092209 5.61969716 -18.4185942 3.99583199 -15.8125 1.3125 C-11.25904686 -0.96422657 -4.9989445 0.03728701 0 0 Z " fill="#B0B5B1" transform="translate(19.8125,-0.3125)"/>
<path d="M0 0 C0.66 1.32 1.32 2.64 2 4 C1.01 5.485 1.01 5.485 0 7 C-0.33 6.67 -0.66 6.34 -1 6 C-3.33297433 5.95907063 -5.66705225 5.95758277 -8 6 C-8.33 7.65 -8.66 9.3 -9 11 C-9.66 11 -10.32 11 -11 11 C-10.979375 12.093125 -10.95875 13.18625 -10.9375 14.3125 C-11 18 -11 18 -12 21 C-11.505 21.33 -11.01 21.66 -10.5 22 C-8.11820439 25.17572747 -8.80831774 28.10246066 -9 32 C-10.65 32 -12.3 32 -14 32 C-14.33 34.31 -14.66 36.62 -15 39 C-18.86672705 38.73635952 -20.58013175 38.39833655 -23.4375 35.6875 C-25 33 -25 33 -24.75 30.6875 C-24.5025 30.130625 -24.255 29.57375 -24 29 C-23.34 29 -22.68 29 -22 29 C-22.18949219 28.41476563 -22.37898438 27.82953125 -22.57421875 27.2265625 C-23.15580889 24.18521958 -22.10277306 22.07087782 -20.9375 19.27734375 C-19.96050383 16.98574201 -19.96050383 16.98574201 -19.1875 14.50390625 C-15.92590107 4.93752011 -10.58033342 -1.32254168 0 0 Z " fill="#492C19" transform="translate(25,1)"/>
<path d="M0 0 C2.51802714 2.42210229 2.98263974 3.84002425 3.36328125 7.34765625 C3.34652344 8.57355469 3.32976563 9.79945312 3.3125 11.0625 C3.30863281 12.29097656 3.30476563 13.51945312 3.30078125 14.78515625 C3 18 3 18 1 21 C0.61500109 22.65549531 0.27206865 24.3222433 0 26 C-0.99 26.33 -1.98 26.66 -3 27 C-3 25.68 -3 24.36 -3 23 C-3.66 23 -4.32 23 -5 23 C-5.33 20.36 -5.66 17.72 -6 15 C-6.99 15 -7.98 15 -9 15 C-8.814375 14.2575 -8.62875 13.515 -8.4375 12.75 C-7.81994411 10.10479816 -7.81994411 10.10479816 -8.5625 8 C-9.18465254 5.15587412 -8.30418242 3.53972365 -7 1 C-4.4254716 -0.2872642 -2.85291355 -0.34791629 0 0 Z " fill="#A0856B" transform="translate(24,6)"/>
<path d="M0 0 C7.23186925 -0.49029622 7.23186925 -0.49029622 10.9375 1.875 C14.0609722 5.09312288 14.12171043 6.84870089 14.09765625 11.2265625 C14.09443359 12.2578125 14.09121094 13.2890625 14.08789062 14.3515625 C14.07951172 15.43179687 14.07113281 16.51203125 14.0625 17.625 C14.05798828 18.71296875 14.05347656 19.8009375 14.04882812 20.921875 C14.03701776 23.61463789 14.02054778 26.30729188 14 29 C10.06674805 25.34615939 9.19023574 21.60341555 8.5625 16.3125 C7.96148554 12.7731926 7.6057448 12.20486099 5 10 C3.98812105 8.34051852 2.9873454 6.67419438 2 5 C1.34 4.34 0.68 3.68 0 3 C0 2.01 0 1.02 0 0 Z " fill="#BFC9C8" transform="translate(26,0)"/>
<path d="M0 0 C0.66 1.32 1.32 2.64 2 4 C1.01 5.485 1.01 5.485 0 7 C-0.33 6.67 -0.66 6.34 -1 6 C-3.33297433 5.95907063 -5.66705225 5.95758277 -8 6 C-8.33 7.65 -8.66 9.3 -9 11 C-9.66 11 -10.32 11 -11 11 C-10.979375 12.0725 -10.95875 13.145 -10.9375 14.25 C-11.02890173 19.73410405 -11.02890173 19.73410405 -12 22 C-14.0625 23.75 -14.0625 23.75 -16 25 C-16.144375 24.236875 -16.28875 23.47375 -16.4375 22.6875 C-16.9632594 19.91827092 -16.9632594 19.91827092 -18 17 C-17.84884727 11.23604272 -16.57723984 6.92037824 -12.375 2.875 C-8.13830402 -0.43831353 -5.24826835 -0.65603354 0 0 Z " fill="#31251A" transform="translate(25,1)"/>
<path d="M0 0 C2.97 0.495 2.97 0.495 6 1 C4.72045197 4.9452731 3.57463296 6.86487096 0 9 C-2.56542969 9.34057617 -2.56542969 9.34057617 -5.421875 9.29296875 C-6.95908203 9.2784668 -6.95908203 9.2784668 -8.52734375 9.26367188 C-9.59082031 9.23853516 -10.65429688 9.21339844 -11.75 9.1875 C-13.36841797 9.16719727 -13.36841797 9.16719727 -15.01953125 9.14648438 C-17.6801942 9.11116584 -20.33984296 9.06184199 -23 9 C-22.625 7.078125 -22.625 7.078125 -22 5 C-18.16471821 2.60294888 -14.49842697 2.94356602 -10.1484375 3.06640625 C-7.46169264 2.98336141 -5.43894342 2.07600445 -3 1 C-2.01 1.33 -1.02 1.66 0 2 C0 1.34 0 0.68 0 0 Z " fill="#BDBFC0" transform="translate(34,31)"/>
<path d="M0 0 C-0.14166357 1.91697937 -0.28849584 3.83357723 -0.4375 5.75 C-0.51871094 6.81734375 -0.59992187 7.8846875 -0.68359375 8.984375 C-1.36297828 15.45949673 -1.36297828 15.45949673 -4.0625 17.75 C-4.701875 18.1625 -5.34125 18.575 -6 19 C-6.144375 18.236875 -6.28875 17.47375 -6.4375 16.6875 C-6.9632594 13.91827092 -6.9632594 13.91827092 -8 11 C-7.23007349 6.76540419 -6.58757157 4.55890954 -3.4375 1.5625 C-1 0 -1 0 0 0 Z " fill="#2D1A0F" transform="translate(15,7)"/>
<path d="M0 0 C3.38552733 2.21810411 5.05265334 4.47622986 7 8 C7.33 8.33 7.66 8.66 8 9 C8.32291797 10.36799796 8.60834275 11.74493176 8.875 13.125 C9.52643842 16.24792619 10.33577856 18.9863898 11.6875 21.875 C13 25 13 25 12 28 C11.5875 27.525625 11.175 27.05125 10.75 26.5625 C8.817815 24.83733482 7.51807725 24.43415125 5 24 C5 21.36 5 18.72 5 16 C5.66 16 6.32 16 7 16 C5.87150068 12.09365621 4.91264186 9.78600526 2 7 C1.63837971 5.67405895 1.30271961 4.34061543 1 3 C0.34 2.34 -0.32 1.68 -1 1 C-0.67 0.67 -0.34 0.34 0 0 Z " fill="#A58259" transform="translate(27,4)"/>
<path d="M0 0 C0.99 0 1.98 0 3 0 C3.05416188 1.60379341 3.09286638 3.20811406 3.125 4.8125 C3.14820313 5.70582031 3.17140625 6.59914063 3.1953125 7.51953125 C3 10 3 10 1 13 C0.61500109 14.65549531 0.27206865 16.3222433 0 18 C-0.99 18.33 -1.98 18.66 -3 19 C-3 17.68 -3 16.36 -3 15 C-3.66 15 -4.32 15 -5 15 C-5 13 -5 13 -3.5 11.375 C-3.005 10.92125 -2.51 10.4675 -2 10 C-2.66 9.67 -3.32 9.34 -4 9 C-2.68 9 -1.36 9 0 9 C0 8.67 0 8.34 0 8 C-0.99 7.67 -1.98 7.34 -3 7 C-3.33 5.35 -3.66 3.7 -4 2 C-2.35 2.33 -0.7 2.66 1 3 C1.33 2.34 1.66 1.68 2 1 C1.34 0.67 0.68 0.34 0 0 Z " fill="#BEA48A" transform="translate(24,14)"/>
<path d="M0 0 C2.97 0.495 2.97 0.495 6 1 C4.74425659 4.87187551 3.65992073 7.06837517 0 9 C-3.25 9.1875 -3.25 9.1875 -6 9 C-6 8.34 -6 7.68 -6 7 C-5.01 7 -4.02 7 -3 7 C-2.67 5.35 -2.34 3.7 -2 2 C-1.34 2 -0.68 2 0 2 C0 1.34 0 0.68 0 0 Z " fill="#C2C7C8" transform="translate(34,31)"/>
<path d="M0 0 C2 2 2 2 2.125 5.125 C2.08375 6.07375 2.0425 7.0225 2 8 C2.66 7.34 3.32 6.68 4 6 C5.37562854 7.28965176 6.70766393 8.62689293 8 10 C8 10.66 8 11.32 8 12 C6.35 11.67 4.7 11.34 3 11 C3 11.66 3 12.32 3 13 C1.68 12.67 0.36 12.34 -1 12 C-2.31299735 4.4137931 -2.31299735 4.4137931 -1 1 C-0.67 0.67 -0.34 0.34 0 0 Z " fill="#7C5130" transform="translate(31,20)"/>
<path d="M0 0 C0.99 0.66 1.98 1.32 3 2 C3.1875 4.625 3.1875 4.625 3 7 C3.99 7.33 4.98 7.66 6 8 C6.33 7.34 6.66 6.68 7 6 C7.33 7.65 7.66 9.3 8 11 C7.01 11 6.02 11 5 11 C4.67 11.99 4.34 12.98 4 14 C3.34 14 2.68 14 2 14 C1.67 12.02 1.34 10.04 1 8 C0.01 8 -0.98 8 -2 8 C-1.814375 7.21625 -1.62875 6.4325 -1.4375 5.625 C-0.74037734 3.02910225 -0.74037734 3.02910225 -2 1 C-1.34 0.67 -0.68 0.34 0 0 Z " fill="#9C7354" transform="translate(17,13)"/>
<path d="M0 0 C2.50037734 2.17424117 3.43628586 3.73045798 4 7 C0.3558226 9.4294516 -1.71241272 9.16179575 -6 9 C-5.67 7.02 -5.34 5.04 -5 3 C-4.01 4.485 -4.01 4.485 -3 6 C-2.34 6 -1.68 6 -1 6 C-1.020625 5.195625 -1.04125 4.39125 -1.0625 3.5625 C-1 1 -1 1 0 0 Z " fill="#956F4D" transform="translate(25,26)"/>
<path d="M0 0 C0.33 0.99 0.66 1.98 1 3 C1.99 3.66 2.98 4.32 4 5 C3.34 5 2.68 5 2 5 C1.67 6.65 1.34 8.3 1 10 C0.34 8.68 -0.32 7.36 -1 6 C-2.65 7.32 -4.3 8.64 -6 10 C-6.33 9.34 -6.66 8.68 -7 8 C-4.69 5.36 -2.38 2.72 0 0 Z " fill="#432B1B" transform="translate(15,2)"/>
<path d="M0 0 C0.45375 0.495 0.9075 0.99 1.375 1.5 C2.87635519 3.22609337 2.87635519 3.22609337 5 3 C5 6.63 5 10.26 5 14 C1.31097845 10.31097845 0.10136458 7.33138538 -0.125 2.125 C-0.08375 1.42375 -0.0425 0.7225 0 0 Z " fill="#BABFAE" transform="translate(35,15)"/>
<path d="M0 0 C0.99 0.33 1.98 0.66 3 1 C4.47694566 4.91390601 5.60226148 7.99434629 4 12 C3.34 12 2.68 12 2 12 C1.47026689 10.37787941 0.95146893 8.75218416 0.4375 7.125 C0.14746094 6.22007813 -0.14257812 5.31515625 -0.44140625 4.3828125 C-1 2 -1 2 0 0 Z " fill="#50301C" transform="translate(26,6)"/>
<path d="M0 0 C0.33 1.98 0.66 3.96 1 6 C-1.31 6 -3.62 6 -6 6 C-5.6875 4.125 -5.6875 4.125 -5 2 C-2 0 -2 0 0 0 Z " fill="#9C9A97" transform="translate(17,34)"/>
<path d="M0 0 C0.66 0.33 1.32 0.66 2 1 C2 3.64 2 6.28 2 9 C1.01 9 0.02 9 -1 9 C-2.1875 7.3125 -2.1875 7.3125 -3 5 C-1.625 2.25 -1.625 2.25 0 0 Z " fill="#2D1A0F" transform="translate(4,29)"/>
<path d="M0 0 C0.33 0.66 0.66 1.32 1 2 C0.0409375 2.1546875 0.0409375 2.1546875 -0.9375 2.3125 C-1.618125 2.539375 -2.29875 2.76625 -3 3 C-3.33 3.99 -3.66 4.98 -4 6 C-5.65 6.33 -7.3 6.66 -9 7 C-8.39816251 4.97954558 -7.72693904 2.97888961 -7 1 C-4.53721199 -0.231394 -2.7204945 -0.07159196 0 0 Z " fill="#9A7657" transform="translate(24,6)"/>
<path d="M0 0 C2.97 0.495 2.97 0.495 6 1 C4.52307692 5.67692308 4.52307692 5.67692308 1.875 7.3125 C0.946875 7.6528125 0.946875 7.6528125 0 8 C0.2784375 7.13375 0.2784375 7.13375 0.5625 6.25 C1.04023546 3.79307475 0.75729364 2.35602466 0 0 Z " fill="#B5B8B9" transform="translate(34,31)"/>
<path d="M0 0 C1.32 0.33 2.64 0.66 4 1 C4 2.32 4 3.64 4 5 C2.02 5 0.04 5 -2 5 C-1.34 3.35 -0.68 1.7 0 0 Z " fill="#231D17" transform="translate(17,1)"/>
<path d="M0 0 C2.4294516 3.6441774 2.16179575 5.71241272 2 10 C-0.89932357 7.60490662 -1.50168276 5.68754757 -2 2 C-1.34 2 -0.68 2 0 2 C0 1.34 0 0.68 0 0 Z " fill="#3E2415" transform="translate(28,22)"/>
<path d="M0 0 C1.485 0.99 1.485 0.99 3 2 C3.40843923 4.71203652 3.13336867 7.2437142 3 10 C1.5 8.9375 1.5 8.9375 0 7 C-0.1875 3.3125 -0.1875 3.3125 0 0 Z " fill="#1D140D" transform="translate(13,23)"/>
<path d="M0 0 C3 2 3 2 4 4 C3.01 4.495 3.01 4.495 2 5 C1.27306096 6.97888961 0.60183749 8.97954558 0 11 C-0.66 10.34 -1.32 9.68 -2 9 C-1.7578125 6.8359375 -1.7578125 6.8359375 -1.125 4.375 C-0.92132813 3.55773437 -0.71765625 2.74046875 -0.5078125 1.8984375 C-0.34023437 1.27195312 -0.17265625 0.64546875 0 0 Z " fill="#5C361F" transform="translate(14,12)"/>
<path d="M0 0 C0.66 0.66 1.32 1.32 2 2 C1.34 2 0.68 2 0 2 C0 2.66 0 3.32 0 4 C-0.99 4.495 -0.99 4.495 -2 5 C-2.73075648 7.3140622 -3.40138258 9.64828869 -4 12 C-5.33176248 8.00471255 -4.41870859 5.90144863 -3 2 C-2.01 1.34 -1.02 0.68 0 0 Z " fill="#21150D" transform="translate(12,9)"/>
<path d="M0 0 C0.33 0.66 0.66 1.32 1 2 C1.66 2 2.32 2 3 2 C3 3.32 3 4.64 3 6 C2.01 6.33 1.02 6.66 0 7 C0 5.68 0 4.36 0 3 C-0.66 3 -1.32 3 -2 3 C-2 2.34 -2 1.68 -2 1 C-1.34 0.67 -0.68 0.34 0 0 Z " fill="#B19271" transform="translate(21,26)"/>
<path d="M0 0 C1.32 0.33 2.64 0.66 4 1 C4 2.32 4 3.64 4 5 C2.68 5 1.36 5 0 5 C0 3.35 0 1.7 0 0 Z " fill="#BFB1A1" transform="translate(22,8)"/>
<path d="M0 0 C0.66 0.33 1.32 0.66 2 1 C2.625 4.0625 2.625 4.0625 3 7 C2.01 6.67 1.02 6.34 0 6 C-0.38218767 4.34385343 -0.71395102 2.67542976 -1 1 C-0.67 0.67 -0.34 0.34 0 0 Z " fill="#79573B" transform="translate(31,13)"/>
<path d="M0 0 C3.48832306 2.20927127 4.73058503 4.08597051 6 8 C4.68 7.67 3.36 7.34 2 7 C1.814375 6.071875 1.814375 6.071875 1.625 5.125 C1.12802644 2.80879168 1.12802644 2.80879168 -1 1 C-0.67 0.67 -0.34 0.34 0 0 Z " fill="#856444" transform="translate(27,4)"/>
<path d="M0 0 C0.99 0.33 1.98 0.66 3 1 C2.67 2.65 2.34 4.3 2 6 C1.01 6 0.02 6 -1 6 C-0.67 4.02 -0.34 2.04 0 0 Z " fill="#522F1A" transform="translate(6,33)"/>
<path d="M0 0 C1.98 0.66 3.96 1.32 6 2 C5.01 2.33 4.02 2.66 3 3 C3.33 3.99 3.66 4.98 4 6 C3.01 5.67 2.02 5.34 1 5 C0.67 3.35 0.34 1.7 0 0 Z " fill="#C6B5A0" transform="translate(20,16)"/>
<path d="M0 0 C2.475 0.99 2.475 0.99 5 2 C5 4.31 5 6.62 5 9 C3 6 3 6 2 3 C1.34 2.67 0.68 2.34 0 2 C0 1.34 0 0.68 0 0 Z " fill="#987D5C" transform="translate(30,11)"/>
</svg>
