<svg xmlns="http://www.w3.org/2000/svg" width="108.043" height="22" viewBox="0 0 108.043 22">
  <g id="Group_172287" data-name="Group 172287" transform="translate(-605.156 -772.166)">
    <path id="Path_37817" data-name="Path 37817" d="M19.936-44.6c0,3.2-1.662,4.684-4.412,4.684s-4.412-1.481-4.412-4.684V-57.411H6.156V-44.87c0,6.256,3.354,9.036,9.4,9.036,5.832,0,9.308-2.69,9.308-9.036V-57.411H19.936ZM44.6-53.875c-1.6-2.9-4.321-3.959-7.978-3.959-5.016,0-7.948,2.75-7.948,6.376,0,3.113,1.783,5.53,6.5,6.618l2.085.484c2.448.574,3.143,1.33,3.143,2.538,0,1.662-1.269,2.508-3.929,2.508A5.865,5.865,0,0,1,31.118-42.3l-3.234,2.387c1.843,3.143,5.016,4.08,8.582,4.08,5.5,0,8.582-2.418,8.582-6.5,0-3.2-1.934-5.258-6.739-6.346l-2.115-.484c-2.448-.574-3.022-1.481-3.022-2.629,0-1.36,1-2.327,3.475-2.327a4.974,4.974,0,0,1,4.563,2.478Zm2.236-3.536v4.17H53.3v16.984h4.956V-53.241h6.467v-4.17Z" transform="translate(599 830)"/>
    <path id="Path_37818" data-name="Path 37818" d="M9.315-35.546h1.753V-56.7H9.315Zm10.728.332c4.291,0,7.162-2.115,7.162-8.1V-56.7H25.483v13.508c0,4.684-2.115,6.5-5.319,6.5A5.84,5.84,0,0,1,16.447-37.9l-.816,1.36A7.331,7.331,0,0,0,20.043-35.214Zm13.9-.332H35.7v-7.8h6.2c4.9,0,7.132-2.659,7.132-6.83,0-4.261-2.176-6.527-7.071-6.527H33.944Zm8.038-19.673c3.6,0,5.288,1.632,5.288,5.107,0,3.505-1.964,5.288-5.168,5.288H35.7v-10.4Z" transform="translate(664.175 829.289)"/>
  </g>
</svg>
