<?xml version="1.0" encoding="UTF-8"?>
<svg version="1.1" xmlns="http://www.w3.org/2000/svg" width="48" height="48">
<path d="M0 0 C15.84 0 31.68 0 48 0 C48 15.84 48 31.68 48 48 C32.16 48 16.32 48 0 48 C0 32.16 0 16.32 0 0 Z " fill="#FDFEFD" transform="translate(0,0)"/>
<path d="M0 0 C0 2.31 0 4.62 0 7 C0.99 7 1.98 7 3 7 C3 6.34 3 5.68 3 5 C2.34 5 1.68 5 1 5 C1 4.34 1 3.68 1 3 C3.97 3 6.94 3 10 3 C10 8.61 10 14.22 10 20 C9.34 20 8.68 20 8 20 C8 19.34 8 18.68 8 18 C6.68 18 5.36 18 4 18 C3.67 18.66 3.34 19.32 3 20 C3 19.34 3 18.68 3 18 C2.34 17.67 1.68 17.34 1 17 C1.66 17 2.32 17 3 17 C3 16.34 3 15.68 3 15 C2.34 14.67 1.68 14.34 1 14 C1.66 14 2.32 14 3 14 C3 13.34 3 12.68 3 12 C2.01 12 1.02 12 0 12 C0 16.29 0 20.58 0 25 C-5.96097878 25.25365867 -9.8363743 24.3696946 -16 23 C-16 16.4 -16 9.8 -16 3 C-4.5 0 -4.5 0 0 0 Z " fill="#11B684" transform="translate(25,6)"/>
<path d="M0 0 C1.32 0 2.64 0 4 0 C4 2.31 4 4.62 4 7 C4.99 7 5.98 7 7 7 C7 6.34 7 5.68 7 5 C6.34 5 5.68 5 5 5 C5 4.34 5 3.68 5 3 C7.97 3 10.94 3 14 3 C14 8.61 14 14.22 14 20 C13.34 20 12.68 20 12 20 C12 19.34 12 18.68 12 18 C10.68 18 9.36 18 8 18 C7.67 18.66 7.34 19.32 7 20 C7 19.34 7 18.68 7 18 C6.34 17.67 5.68 17.34 5 17 C5.66 17 6.32 17 7 17 C7 16.34 7 15.68 7 15 C6.34 14.67 5.68 14.34 5 14 C5.66 14 6.32 14 7 14 C7 13.34 7 12.68 7 12 C6.01 12 5.02 12 4 12 C4 16.29 4 20.58 4 25 C3.67 25 3.34 25 3 25 C3 17.08 3 9.16 3 1 C2.01 0.67 1.02 0.34 0 0 Z " fill="#A2E2CF" transform="translate(21,6)"/>
<path d="M0 0 C2.31 0 4.62 0 7 0 C7 1.98 7 3.96 7 6 C8.32 6.33 9.64 6.66 11 7 C10.09972412 8.03531726 9.17906965 9.05294165 8.25 10.0625 C7.73953125 10.63097656 7.2290625 11.19945312 6.703125 11.78515625 C5 13 5 13 2.96875 12.875 C-0.34832499 11.40074445 -1.81742093 8.84947823 -4 6 C-2.68 6 -1.36 6 0 6 C0 4.02 0 2.04 0 0 Z " fill="#7C7682" transform="translate(27,28)"/>
<path d="M0 0 C2.97 0 5.94 0 9 0 C9 5.61 9 11.22 9 17 C8.34 17 7.68 17 7 17 C7 16.34 7 15.68 7 15 C5.68 15 4.36 15 3 15 C2.67 15.66 2.34 16.32 2 17 C2 16.34 2 15.68 2 15 C1.34 14.67 0.68 14.34 0 14 C0.66 14 1.32 14 2 14 C2 13.34 2 12.68 2 12 C1.34 11.67 0.68 11.34 0 11 C2.31 11 4.62 11 7 11 C7 8.03 7 5.06 7 2 C4.69 2 2.38 2 0 2 C0 1.34 0 0.68 0 0 Z " fill="#65D0AF" transform="translate(26,9)"/>
<path d="M0 0 C0.99 0 1.98 0 3 0 C3 1.98 3 3.96 3 6 C4.65 6 6.3 6 8 6 C8 6.66 8 7.32 8 8 C8.66 8.33 9.32 8.66 10 9 C9 10 9 10 5.4375 10.0625 C4.303125 10.041875 3.16875 10.02125 2 10 C2 11.98 2 13.96 2 16 C1.67 16 1.34 16 1 16 C-0.12862175 10.63904667 -0.09688221 5.44693314 0 0 Z " fill="#EDF5F3" transform="translate(25,18)"/>
<path d="M0 0 C0.99 0 1.98 0 3 0 C3.33 0.66 3.66 1.32 4 2 C4.33 1.34 4.66 0.68 5 0 C5.66 0 6.32 0 7 0 C6.79375 0.9075 6.5875 1.815 6.375 2.75 C5.9872755 6.11027897 6.19588033 7.24075815 8 10 C7.01 10 6.02 10 5 10 C4.67 9.34 4.34 8.68 4 8 C2.02 8.99 2.02 8.99 0 10 C0.185625 8.906875 0.37125 7.81375 0.5625 6.6875 C1.2578068 3.06375867 1.2578068 3.06375867 0 0 Z " fill="#D6F2EA" transform="translate(13,14)"/>
<path d="M0 0 C1.32 0 2.64 0 4 0 C4 0.66 4 1.32 4 2 C4.66 2.33 5.32 2.66 6 3 C5 4 5 4 1.4375 4.0625 C0.303125 4.041875 -0.83125 4.02125 -2 4 C-2.33 3.34 -2.66 2.68 -3 2 C-2.01 2 -1.02 2 0 2 C0 1.34 0 0.68 0 0 Z " fill="#BEDDD5" transform="translate(29,24)"/>
<path d="M0 0 C2.97 0 5.94 0 9 0 C9 1.65 9 3.3 9 5 C8.34 4.67 7.68 4.34 7 4 C7 3.34 7 2.68 7 2 C4.69 2 2.38 2 0 2 C0 1.34 0 0.68 0 0 Z " fill="#2CBF92" transform="translate(26,9)"/>
<path d="M0 0 C1.32 0.33 2.64 0.66 4 1 C3.67 1.66 3.34 2.32 3 3 C4.65 3 6.3 3 8 3 C7.67 3.66 7.34 4.32 7 5 C5.68 4.67 4.36 4.34 3 4 C2.67 4.66 2.34 5.32 2 6 C2 5.34 2 4.68 2 4 C1.34 3.67 0.68 3.34 0 3 C0.66 3 1.32 3 2 3 C2 2.34 2 1.68 2 1 C1.34 0.67 0.68 0.34 0 0 Z " fill="#34C196" transform="translate(26,20)"/>
</svg>
